<svg width="40" height="43" viewBox="0 0 40 43" xmlns="http://www.w3.org/2000/svg">
<g id="Frame" clip-path="url(#clip0_66_887)">
<g id="Group">
<path id="Vector" d="M26.0979 42.9993C26.4059 42.4195 26.6887 41.931 26.9313 41.4232C28.3863 38.3841 29.0181 35.1909 28.7022 31.8405C28.3296 27.8965 26.7226 24.4385 24.253 21.3568C23.3227 20.1957 22.2805 19.1212 21.2493 17.9632C21.3163 18.7512 21.4376 19.4309 21.4187 20.1067C21.3699 21.9126 20.7452 23.5762 19.859 25.1244C19.1217 26.4133 18.2449 27.624 17.428 28.8688C17.3886 28.9291 17.3311 28.9787 17.2374 29.0816C17.3335 26.9273 17.4705 24.8295 16.0306 23.0544C16.1259 24.8976 15.331 26.4381 14.2857 27.8415C13.39 29.0437 12.4211 30.2188 11.3364 31.2545C9.33001 33.1697 8.88967 35.4308 9.47811 37.9947C9.86017 39.6598 10.5943 41.1801 11.5192 42.6169C11.5814 42.7129 11.6381 42.8119 11.6539 43C11.0197 42.7825 10.3753 42.5898 9.75224 42.3436C7.10543 41.3009 4.76583 39.8177 2.93197 37.6386C1.17057 35.5462 0.232373 33.131 0.0393763 30.4239C-0.188281 27.223 0.590008 24.2071 1.7732 21.2694C3.09818 17.9794 4.92496 14.9581 6.96048 12.0513C6.99593 12.001 7.04241 11.9576 7.14403 11.8446C6.57292 14.938 6.86123 17.8927 7.71829 20.8738C7.89238 20.7499 8.03024 20.6601 8.15943 20.5587C11.2009 18.1706 13.765 15.3893 15.4531 11.9042C16.6828 9.36517 17.2035 6.70302 16.745 3.89611C16.5489 2.69393 16.1747 1.54361 15.658 0.437411C15.6052 0.325166 15.5587 0.209824 15.4665 -0.000732422C15.8825 0.13164 16.2188 0.221436 16.5426 0.343744C19.551 1.48013 22.0119 3.37437 24.1475 5.7021C26.9723 8.78072 28.9298 12.3648 30.4179 16.216C30.5329 16.514 30.6455 16.8136 30.7818 17.172C31.2458 16.5311 31.4018 15.8491 31.4845 15.1508C31.7185 13.1885 31.308 11.3028 30.7487 9.43793C30.5943 8.9247 30.4132 8.41921 30.3013 7.85953C30.6432 8.12892 30.9937 8.38825 31.3246 8.67002C34.6812 11.5334 37.3642 14.8907 38.8255 19.0531C40.8224 24.7428 40.3308 30.218 36.9089 35.2838C34.5307 38.8052 31.1213 41.0942 27.1606 42.6323C26.8368 42.7593 26.5028 42.8607 26.0979 42.9993Z"/>
</g>
</g>
<defs>
<clipPath id="clip0_66_887">
<rect width="40" height="43"/>
</clipPath>
</defs>
</svg>
