<svg width="40" height="40" viewBox="0 0 40 40" xmlns="http://www.w3.org/2000/svg">
<g id="Frame" clip-path="url(#clip0_51_803)">
<g id="Group">
<path id="Vector" d="M25.3266 25.3002C25.3266 26.3668 25.3266 27.3728 25.3266 28.3787C25.3256 30.4556 25.3461 32.5325 25.3191 34.6094C25.2779 37.7389 22.8648 40.09 19.8277 39.9968C17.0722 39.9123 14.7849 37.7129 14.722 34.9595C14.6549 32.0176 14.6949 29.0724 14.6895 26.1283C14.6895 25.879 14.6895 25.6297 14.6895 25.3013C14.3211 25.3013 14.0036 25.3013 13.6862 25.3013C10.8516 25.298 8.01708 25.337 5.18362 25.2818C2.18221 25.2232 -0.0618032 22.819 0.00212571 19.8282C0.0595534 17.1237 2.28623 14.7986 4.99292 14.7379C7.88055 14.6728 10.7693 14.7119 13.658 14.7064C13.9776 14.7054 14.2984 14.7064 14.6928 14.7064C14.6928 13.7883 14.6917 12.9276 14.6928 12.0659C14.6949 9.77216 14.6614 7.47737 14.7123 5.18475C14.7643 2.85202 16.1653 1.02443 18.3692 0.268892C21.4898 -0.799913 25.0363 1.43634 25.2551 4.72731C25.4025 6.93971 25.3147 9.16729 25.3266 11.3884C25.3331 12.4691 25.3277 13.5509 25.3277 14.7086C26.161 14.7086 26.9487 14.7075 27.7375 14.7086C30.1571 14.7129 32.5766 14.6783 34.994 14.7335C37.5707 14.7932 39.6662 16.844 39.9696 19.5031C40.247 21.9323 38.6065 24.3994 36.2357 25.0541C35.6701 25.2102 35.0655 25.2839 34.4782 25.2893C31.6437 25.3121 28.8091 25.2991 25.9757 25.298C25.7806 25.3002 25.5867 25.3002 25.3266 25.3002Z"/>
</g>
</g>
<defs>
<clipPath id="clip0_51_803">
<rect width="40" height="40"/>
</clipPath>
</defs>
</svg>
