<svg width="120" height="120" viewBox="0 0 120 120" fill="none" xmlns="http://www.w3.org/2000/svg">
<rect width="120" height="120" rx="9" fill="#1E2122"/>
<g clip-path="url(#clip0_114_6)">
<path d="M60.0683 26C78.807 26.0306 94.0384 41.3309 93.9999 60.0857C93.9614 78.8233 78.653 94.0452 59.8943 93.9987C41.1609 93.9536 25.9468 78.6387 25.9999 59.8772C26.053 41.1742 41.3428 25.9695 60.0683 26ZM88.7076 59.9755C88.6731 44.0868 75.7937 31.2449 59.9421 31.2941C44.0813 31.3432 31.2629 44.1997 31.2961 60.0246C31.3293 75.9053 44.23 88.7711 60.059 88.71C75.9212 88.6489 88.7408 75.7898 88.7076 59.9755Z" fill="#6C6B6A"/>
<path d="M57.3499 62.3915C56.4495 62.3915 55.6141 62.3915 54.7801 62.3915C52.1028 62.3902 49.4254 62.4088 46.7481 62.3796C45.59 62.3663 44.7959 61.7314 44.3656 60.6755C43.9672 59.702 44.2686 58.5532 45.0562 57.8227C45.683 57.2409 46.4559 57.1041 47.2687 57.1028C50.3883 57.1015 53.5078 57.1028 56.6274 57.1041C56.8439 57.1041 57.059 57.1041 57.314 57.1041C57.326 56.8558 57.3446 56.6632 57.3446 56.4706C57.3472 53.2406 57.3379 50.0092 57.3539 46.7791C57.3605 45.3899 58.1427 44.3512 59.338 44.0537C61.0804 43.6208 62.6262 44.8639 62.6422 46.7698C62.6674 49.9786 62.6514 53.1861 62.6528 56.3949C62.6528 56.6114 62.6528 56.8266 62.6528 57.1095C63.6395 57.1095 64.5625 57.1095 65.4855 57.1095C67.9411 57.1081 70.3979 57.0975 72.8535 57.1055C74.2639 57.1108 75.2719 57.7775 75.6544 58.9131C76.24 60.6543 75.0089 62.3756 73.1284 62.3875C69.9199 62.4075 66.7126 62.3915 63.5041 62.3915C63.2438 62.3915 62.9835 62.3915 62.6488 62.3915C62.6488 62.7275 62.6488 63.0091 62.6488 63.2893C62.6501 66.4318 62.6594 69.5742 62.6501 72.7152C62.6448 74.3701 61.5532 75.5389 60.0392 75.5508C58.484 75.5641 57.3552 74.3953 57.3499 72.7259C57.3393 69.6499 57.3486 66.5739 57.3499 63.4992C57.3512 63.1512 57.3499 62.8032 57.3499 62.3915Z" fill="#6C6B6A"/>
</g>
<defs>
<clipPath id="clip0_114_6">
<rect width="68" height="68" fill="white" transform="translate(26 26)"/>
</clipPath>
</defs>
</svg>
