<svg width="40" height="41" viewBox="0 0 40 41" xmlns="http://www.w3.org/2000/svg">
<g id="Frame" clip-path="url(#clip0_66_890)">
<g id="Group">
<path id="Vector" d="M9.81207 9.22956C10.5777 9.97775 11.3328 10.7085 12.0803 11.447C12.697 12.056 13.2997 12.6789 13.9177 13.2858C14.3903 13.75 14.455 14.7884 13.7368 15.2241C13.4904 15.3738 13.1779 15.49 12.8953 15.4914C9.05623 15.5088 5.21714 15.5074 1.37805 15.4997C0.502497 15.4977 0.0118233 14.9771 0.00625536 14.0625C-0.00348852 12.5084 0.0027754 10.9542 0.0027754 9.40008C0.0027754 7.12697 0.00486337 4.85317 0.00138342 2.58006C-8.56398e-06 2.06155 0.12527 1.61542 0.619423 1.35372C1.21589 1.03705 1.74762 1.11152 2.23203 1.59314C3.34632 2.70116 4.45085 3.81892 5.56931 4.92277C6.28966 5.63337 6.03632 5.63407 6.83462 4.94017C8.37833 3.5976 10.071 2.48262 11.9648 1.70102C12.8897 1.31892 13.8314 0.965361 14.7898 0.680004C15.5171 0.463551 16.2827 0.37516 17.0316 0.232482C18.6066 -0.0674902 20.1983 -0.0312986 21.781 0.0849319C22.7443 0.155227 23.7061 0.346625 24.6485 0.566558C25.5672 0.780923 26.4797 1.05097 27.3608 1.38783C28.6324 1.87363 29.8371 2.51116 30.9737 3.267C33.4973 4.94504 35.5624 7.07129 37.1283 9.66595C37.8375 10.8408 38.4138 12.0831 38.8836 13.3805C39.897 16.1783 40.1601 19.066 39.9137 21.9996C39.8176 23.1424 39.5163 24.2727 39.2504 25.3953C38.8377 27.1374 38.0867 28.7472 37.1708 30.2763C35.9653 32.2884 34.4355 34.0242 32.6246 35.5158C31.1609 36.7212 29.5594 37.7067 27.8132 38.4292C26.8172 38.8412 25.767 39.13 24.7286 39.4307C22.5494 40.0627 20.3125 40.0919 18.0763 39.929C17.1471 39.8615 16.2215 39.6597 15.3125 39.4425C14.4174 39.2289 13.5245 38.9727 12.6677 38.6394C11.1818 38.0617 9.77101 37.3246 8.47855 36.3795C8.1243 36.1199 7.76725 35.8624 7.43039 35.5819C6.56667 34.8636 6.47758 33.6366 7.23343 32.8042C7.56054 32.4443 7.91202 32.1054 8.26628 31.772C8.9748 31.1039 10.0529 31.0691 10.8644 31.7212C12.1019 32.7158 13.4751 33.4723 14.9575 34.0075C16.9397 34.723 18.995 34.9659 21.1031 34.826C22.2432 34.7502 23.3554 34.5442 24.4355 34.2059C26.1324 33.6742 27.6816 32.848 29.0959 31.756C30.7322 30.4928 32.0365 28.9553 33.0331 27.1541C33.672 25.9988 34.1147 24.771 34.4425 23.4862C34.8956 21.7149 34.938 19.9276 34.7411 18.1396C34.636 17.1854 34.3304 16.25 34.0778 15.3167C33.7368 14.057 33.1236 12.9197 32.4067 11.8367C31.3551 10.2471 30.0508 8.90523 28.4862 7.81183C27.4193 7.06642 26.2778 6.4616 25.0571 6.02591C23.1062 5.32992 21.092 5.06336 19.0173 5.19003C17.8417 5.26171 16.694 5.46355 15.5798 5.80876C13.4904 6.45603 11.6321 7.52995 10.0104 9.00406C9.95962 9.0486 9.91926 9.10567 9.81207 9.22956Z"/>
<path id="Vector_2" d="M17.4443 16.8784C17.4443 15.1391 17.4506 13.3998 17.4415 11.6599C17.4374 10.8623 17.7854 10.2804 18.4744 9.90736C18.6727 9.80018 18.9115 9.71179 19.1328 9.71109C19.8128 9.70831 20.5011 9.69717 21.1713 9.79252C21.8604 9.88996 22.42 10.5609 22.5146 11.252C22.5445 11.4692 22.5557 11.6905 22.5564 11.9104C22.5592 14.4501 22.5633 16.9898 22.5522 19.5294C22.5508 19.874 22.651 20.1057 22.9336 20.3208C23.9365 21.0822 24.9081 21.8847 25.909 22.6496C26.7511 23.2927 26.7678 24.6728 26.1727 25.3584C25.893 25.6813 25.6542 26.0404 25.3696 26.3592C24.6075 27.2139 23.5231 27.3343 22.5599 26.5659C20.9967 25.3194 19.4084 24.1035 17.8208 22.8883C17.5557 22.6851 17.4367 22.4679 17.4387 22.1317C17.4499 20.3806 17.4436 18.6295 17.4443 16.8784Z"/>
</g>
</g>
<defs>
<clipPath id="clip0_66_890">
<rect width="40" height="40.0125"/>
</clipPath>
</defs>
</svg>
