<svg width="56" height="52" viewBox="0 0 56 52" fill="none" xmlns="http://www.w3.org/2000/svg">
<path id="Arrow 2" d="M4 22.5C2.067 22.5 0.5 24.067 0.5 26C0.5 27.933 2.067 29.5 4 29.5V22.5ZM54.4749 28.4749C55.8417 27.108 55.8417 24.892 54.4749 23.5251L32.201 1.25126C30.8342 -0.115572 28.6181 -0.115572 27.2513 1.25126C25.8844 2.6181 25.8844 4.83418 27.2513 6.20101L47.0503 26L27.2513 45.799C25.8844 47.1658 25.8844 49.3819 27.2513 50.7487C28.6181 52.1156 30.8342 52.1156 32.201 50.7487L54.4749 28.4749ZM4 29.5H52V22.5H4V29.5Z" fill="#F4EDE5"/>
</svg>
