<svg width="40" height="40" viewBox="0 0 40 40" xmlns="http://www.w3.org/2000/svg">
<g id="Frame" clip-path="url(#clip0_47_800)">
<g id="Group">
<path id="Vector" d="M14.9958 39.9878C12.3607 39.9878 9.81548 40.0258 7.27357 39.9727C5.97119 39.9456 4.99711 38.7701 4.99603 37.4062C4.99494 32.6762 4.99603 27.9473 4.99603 23.2174C4.99603 23.0061 4.99603 22.7938 4.99603 22.5251C4.14655 22.5251 3.35667 22.5424 2.56788 22.5218C0.755162 22.4742 -0.438867 20.8784 0.15273 19.2187C0.339094 18.6976 0.716156 18.2046 1.11272 17.806C5.30916 13.5787 9.52619 9.37412 13.7389 5.16417C15.1431 3.76121 16.5473 2.35825 17.9581 0.961797C18.7393 0.188274 19.6614 -0.251572 20.7492 0.152523C21.2704 0.345362 21.7655 0.706122 22.1697 1.09613C23.7668 2.63776 25.3259 4.21839 26.8905 5.79144C27.0541 5.95611 27.1679 6.17061 27.3044 6.36129C27.3749 6.32445 27.4453 6.28762 27.5157 6.25078C27.5157 5.84994 27.5125 5.44801 27.5157 5.04716C27.5287 3.57812 28.5711 2.52401 30.0338 2.50992C30.8464 2.50234 31.6591 2.50017 32.4706 2.50992C33.9117 2.52726 34.9963 3.60954 35.0028 5.06017C35.0147 7.8585 35.0006 10.6568 35.0234 13.4541C35.0255 13.7043 35.1577 14.012 35.3322 14.1929C36.5847 15.4919 37.8719 16.7562 39.1299 18.0497C39.806 18.7452 40.1581 19.5653 39.9273 20.5609C39.6814 21.6248 38.9338 22.3713 37.8448 22.4633C36.9325 22.5403 36.0083 22.4796 35.006 22.4796C35.006 22.7613 35.006 22.9693 35.006 23.1784C35.006 27.8899 35.006 32.6015 35.006 37.313C35.006 38.9283 33.9507 39.9889 32.3309 39.99C30.0739 39.9922 27.8169 39.9911 25.56 39.9911C25.4007 39.9911 25.2414 39.9911 25.0052 39.9911C25.0052 39.7224 25.0052 39.4949 25.0052 39.2685C25.0052 35.4594 24.9684 31.6503 25.0226 27.8422C25.0453 26.2616 23.9163 24.9128 22.2087 25.006C20.6788 25.0894 19.1402 25.019 17.6059 25.0255C16.0424 25.032 14.999 26.0677 14.9958 27.644C14.9871 31.5073 14.9925 35.3695 14.9925 39.2327C14.9958 39.4657 14.9958 39.6964 14.9958 39.9878Z"/>
</g>
</g>
<defs>
<clipPath id="clip0_47_800">
<rect width="40" height="40"/>
</clipPath>
</defs>
</svg>
