<svg width="301" height="23" viewBox="0 0 301 23" fill="none" xmlns="http://www.w3.org/2000/svg">
<path d="M10.56 6.93532C10.56 7.68198 10.38 8.38198 10.02 9.03532C9.67333 9.68865 9.12 10.2153 8.36 10.6153C7.61333 11.0153 6.66667 11.2153 5.52 11.2153H3.18V16.5753H0.38V2.61532H5.52C6.6 2.61532 7.52 2.80198 8.28 3.17532C9.04 3.54865 9.60667 4.06198 9.98 4.71532C10.3667 5.36865 10.56 6.10865 10.56 6.93532ZM5.4 8.95532C6.17333 8.95532 6.74667 8.78198 7.12 8.43532C7.49333 8.07532 7.68 7.57532 7.68 6.93532C7.68 5.57532 6.92 4.89532 5.4 4.89532H3.18V8.95532H5.4ZM15.348 7.21532C15.708 6.62865 16.1746 6.16865 16.748 5.83532C17.3346 5.50198 18.0013 5.33532 18.748 5.33532V8.27532H18.008C17.128 8.27532 16.4613 8.48198 16.008 8.89532C15.568 9.30865 15.348 10.0287 15.348 11.0553V16.5753H12.548V5.49532H15.348V7.21532ZM30.9339 10.7953C30.9339 11.1953 30.9072 11.5553 30.8539 11.8753H22.7539C22.8206 12.6753 23.1006 13.302 23.5939 13.7553C24.0872 14.2087 24.6939 14.4353 25.4139 14.4353C26.4539 14.4353 27.1939 13.9887 27.6339 13.0953H30.6539C30.3339 14.162 29.7206 15.042 28.8139 15.7353C27.9072 16.4153 26.7939 16.7553 25.4739 16.7553C24.4072 16.7553 23.4472 16.522 22.5939 16.0553C21.7539 15.5753 21.0939 14.902 20.6139 14.0353C20.1472 13.1687 19.9139 12.1687 19.9139 11.0353C19.9139 9.88865 20.1472 8.88198 20.6139 8.01532C21.0806 7.14865 21.7339 6.48198 22.5739 6.01532C23.4139 5.54865 24.3806 5.31532 25.4739 5.31532C26.5272 5.31532 27.4672 5.54198 28.2939 5.99532C29.1339 6.44865 29.7806 7.09532 30.2339 7.93532C30.7006 8.76198 30.9339 9.71532 30.9339 10.7953ZM28.0339 9.99532C28.0206 9.27532 27.7606 8.70198 27.2539 8.27532C26.7472 7.83532 26.1272 7.61532 25.3939 7.61532C24.7006 7.61532 24.1139 7.82865 23.6339 8.25532C23.1672 8.66865 22.8806 9.24865 22.7739 9.99532H28.0339ZM32.2577 11.0353C32.2577 9.88865 32.491 8.88865 32.9577 8.03532C33.4243 7.16865 34.071 6.50198 34.8977 6.03532C35.7243 5.55532 36.671 5.31532 37.7377 5.31532C39.111 5.31532 40.2443 5.66198 41.1377 6.35532C42.0443 7.03532 42.651 7.99532 42.9577 9.23532H39.9377C39.7777 8.75532 39.5043 8.38198 39.1177 8.11532C38.7443 7.83532 38.2777 7.69532 37.7177 7.69532C36.9177 7.69532 36.2843 7.98865 35.8177 8.57532C35.351 9.14865 35.1177 9.96865 35.1177 11.0353C35.1177 12.0887 35.351 12.9087 35.8177 13.4953C36.2843 14.0687 36.9177 14.3553 37.7177 14.3553C38.851 14.3553 39.591 13.8487 39.9377 12.8353H42.9577C42.651 14.0353 42.0443 14.9887 41.1377 15.6953C40.231 16.402 39.0977 16.7553 37.7377 16.7553C36.671 16.7553 35.7243 16.522 34.8977 16.0553C34.071 15.5753 33.4243 14.9087 32.9577 14.0553C32.491 13.1887 32.2577 12.182 32.2577 11.0353ZM46.4289 4.17532C45.9356 4.17532 45.5222 4.02198 45.1889 3.71532C44.8689 3.39532 44.7089 3.00198 44.7089 2.53532C44.7089 2.06865 44.8689 1.68198 45.1889 1.37532C45.5222 1.05532 45.9356 0.895317 46.4289 0.895317C46.9222 0.895317 47.3289 1.05532 47.6489 1.37532C47.9822 1.68198 48.1489 2.06865 48.1489 2.53532C48.1489 3.00198 47.9822 3.39532 47.6489 3.71532C47.3289 4.02198 46.9222 4.17532 46.4289 4.17532ZM47.8089 5.49532V16.5753H45.0089V5.49532H47.8089ZM54.8153 16.7553C53.9086 16.7553 53.0953 16.5953 52.3753 16.2753C51.6553 15.942 51.082 15.4953 50.6553 14.9353C50.242 14.3753 50.0153 13.7553 49.9753 13.0753H52.7953C52.8486 13.502 53.0553 13.8553 53.4153 14.1353C53.7886 14.4153 54.2486 14.5553 54.7953 14.5553C55.3286 14.5553 55.742 14.4487 56.0353 14.2353C56.342 14.022 56.4953 13.7487 56.4953 13.4153C56.4953 13.0553 56.3086 12.7887 55.9353 12.6153C55.5753 12.4287 54.9953 12.2287 54.1953 12.0153C53.3686 11.8153 52.6886 11.6087 52.1553 11.3953C51.6353 11.182 51.182 10.8553 50.7953 10.4153C50.422 9.97532 50.2353 9.38198 50.2353 8.63532C50.2353 8.02198 50.4086 7.46198 50.7553 6.95532C51.1153 6.44865 51.622 6.04865 52.2753 5.75532C52.942 5.46198 53.722 5.31532 54.6153 5.31532C55.9353 5.31532 56.9886 5.64865 57.7753 6.31532C58.562 6.96865 58.9953 7.85532 59.0753 8.97532H56.3953C56.3553 8.53532 56.1686 8.18865 55.8353 7.93532C55.5153 7.66865 55.082 7.53532 54.5353 7.53532C54.0286 7.53532 53.6353 7.62865 53.3553 7.81532C53.0886 8.00198 52.9553 8.26198 52.9553 8.59532C52.9553 8.96865 53.142 9.25532 53.5153 9.45532C53.8886 9.64198 54.4686 9.83532 55.2553 10.0353C56.0553 10.2353 56.7153 10.442 57.2353 10.6553C57.7553 10.8687 58.202 11.202 58.5753 11.6553C58.962 12.0953 59.162 12.682 59.1753 13.4153C59.1753 14.0553 58.9953 14.6287 58.6353 15.1353C58.2886 15.642 57.782 16.042 57.1153 16.3353C56.462 16.6153 55.6953 16.7553 54.8153 16.7553ZM62.8938 4.17532C62.4004 4.17532 61.9871 4.02198 61.6538 3.71532C61.3338 3.39532 61.1738 3.00198 61.1738 2.53532C61.1738 2.06865 61.3338 1.68198 61.6538 1.37532C61.9871 1.05532 62.4004 0.895317 62.8938 0.895317C63.3871 0.895317 63.7938 1.05532 64.1138 1.37532C64.4471 1.68198 64.6138 2.06865 64.6138 2.53532C64.6138 3.00198 64.4471 3.39532 64.1138 3.71532C63.7938 4.02198 63.3871 4.17532 62.8938 4.17532ZM64.2738 5.49532V16.5753H61.4738V5.49532H64.2738ZM71.9602 16.7553C70.8935 16.7553 69.9335 16.522 69.0802 16.0553C68.2268 15.5753 67.5535 14.902 67.0602 14.0353C66.5802 13.1687 66.3402 12.1687 66.3402 11.0353C66.3402 9.90198 66.5868 8.90198 67.0802 8.03532C67.5868 7.16865 68.2735 6.50198 69.1402 6.03532C70.0068 5.55532 70.9735 5.31532 72.0402 5.31532C73.1068 5.31532 74.0735 5.55532 74.9402 6.03532C75.8068 6.50198 76.4868 7.16865 76.9802 8.03532C77.4868 8.90198 77.7402 9.90198 77.7402 11.0353C77.7402 12.1687 77.4802 13.1687 76.9602 14.0353C76.4535 14.902 75.7602 15.5753 74.8802 16.0553C74.0135 16.522 73.0402 16.7553 71.9602 16.7553ZM71.9602 14.3153C72.4668 14.3153 72.9402 14.1953 73.3802 13.9553C73.8335 13.702 74.1935 13.3287 74.4602 12.8353C74.7268 12.342 74.8602 11.742 74.8602 11.0353C74.8602 9.98198 74.5802 9.17532 74.0202 8.61532C73.4735 8.04198 72.8002 7.75532 72.0002 7.75532C71.2002 7.75532 70.5268 8.04198 69.9802 8.61532C69.4468 9.17532 69.1802 9.98198 69.1802 11.0353C69.1802 12.0887 69.4402 12.902 69.9602 13.4753C70.4935 14.0353 71.1602 14.3153 71.9602 14.3153ZM85.9341 5.33532C87.2541 5.33532 88.3207 5.75532 89.1341 6.59532C89.9474 7.42198 90.3541 8.58198 90.3541 10.0753V16.5753H87.5541V10.4553C87.5541 9.57532 87.3341 8.90198 86.8941 8.43532C86.4541 7.95532 85.8541 7.71532 85.0941 7.71532C84.3207 7.71532 83.7074 7.95532 83.2541 8.43532C82.8141 8.90198 82.5941 9.57532 82.5941 10.4553V16.5753H79.7941V5.49532H82.5941V6.87532C82.9674 6.39532 83.4407 6.02198 84.0141 5.75532C84.6007 5.47532 85.2407 5.33532 85.9341 5.33532ZM102.602 16.7153C101.629 16.7153 100.749 16.5487 99.9623 16.2153C99.189 15.882 98.5757 15.402 98.1223 14.7753C97.669 14.1487 97.4357 13.4087 97.4223 12.5553H100.422C100.462 13.1287 100.662 13.582 101.022 13.9153C101.396 14.2487 101.902 14.4153 102.542 14.4153C103.196 14.4153 103.709 14.262 104.082 13.9553C104.456 13.6353 104.642 13.222 104.642 12.7153C104.642 12.302 104.516 11.962 104.262 11.6953C104.009 11.4287 103.689 11.222 103.302 11.0753C102.929 10.9153 102.409 10.742 101.742 10.5553C100.836 10.2887 100.096 10.0287 99.5223 9.77532C98.9623 9.50865 98.4757 9.11532 98.0623 8.59532C97.6623 8.06198 97.4623 7.35532 97.4623 6.47532C97.4623 5.64865 97.669 4.92865 98.0823 4.31532C98.4957 3.70198 99.0757 3.23532 99.8223 2.91532C100.569 2.58198 101.422 2.41532 102.382 2.41532C103.822 2.41532 104.989 2.76865 105.882 3.47532C106.789 4.16865 107.289 5.14198 107.382 6.39532H104.302C104.276 5.91532 104.069 5.52198 103.682 5.21532C103.309 4.89532 102.809 4.73532 102.182 4.73532C101.636 4.73532 101.196 4.87532 100.862 5.15532C100.542 5.43532 100.382 5.84198 100.382 6.37532C100.382 6.74865 100.502 7.06198 100.742 7.31532C100.996 7.55532 101.302 7.75532 101.662 7.91532C102.036 8.06198 102.556 8.23532 103.222 8.43532C104.129 8.70198 104.869 8.96865 105.442 9.23532C106.016 9.50198 106.509 9.90198 106.922 10.4353C107.336 10.9687 107.542 11.6687 107.542 12.5353C107.542 13.282 107.349 13.9753 106.962 14.6153C106.576 15.2553 106.009 15.7687 105.262 16.1553C104.516 16.5287 103.629 16.7153 102.602 16.7153ZM123.73 5.33532C125.09 5.33532 126.183 5.75532 127.01 6.59532C127.85 7.42198 128.27 8.58198 128.27 10.0753V16.5753H125.47V10.4553C125.47 9.58865 125.25 8.92865 124.81 8.47532C124.37 8.00865 123.77 7.77532 123.01 7.77532C122.25 7.77532 121.643 8.00865 121.19 8.47532C120.75 8.92865 120.53 9.58865 120.53 10.4553V16.5753H117.73V10.4553C117.73 9.58865 117.51 8.92865 117.07 8.47532C116.63 8.00865 116.03 7.77532 115.27 7.77532C114.497 7.77532 113.883 8.00865 113.43 8.47532C112.99 8.92865 112.77 9.58865 112.77 10.4553V16.5753H109.97V5.49532H112.77V6.83532C113.13 6.36865 113.59 6.00198 114.15 5.73532C114.723 5.46865 115.35 5.33532 116.03 5.33532C116.897 5.33532 117.67 5.52198 118.35 5.89532C119.03 6.25532 119.557 6.77532 119.93 7.45532C120.29 6.81532 120.81 6.30198 121.49 5.91532C122.183 5.52865 122.93 5.33532 123.73 5.33532ZM135.847 16.7553C134.78 16.7553 133.82 16.522 132.967 16.0553C132.114 15.5753 131.44 14.902 130.947 14.0353C130.467 13.1687 130.227 12.1687 130.227 11.0353C130.227 9.90198 130.474 8.90198 130.967 8.03532C131.474 7.16865 132.16 6.50198 133.027 6.03532C133.894 5.55532 134.86 5.31532 135.927 5.31532C136.994 5.31532 137.96 5.55532 138.827 6.03532C139.694 6.50198 140.374 7.16865 140.867 8.03532C141.374 8.90198 141.627 9.90198 141.627 11.0353C141.627 12.1687 141.367 13.1687 140.847 14.0353C140.34 14.902 139.647 15.5753 138.767 16.0553C137.9 16.522 136.927 16.7553 135.847 16.7553ZM135.847 14.3153C136.354 14.3153 136.827 14.1953 137.267 13.9553C137.72 13.702 138.08 13.3287 138.347 12.8353C138.614 12.342 138.747 11.742 138.747 11.0353C138.747 9.98198 138.467 9.17532 137.907 8.61532C137.36 8.04198 136.687 7.75532 135.887 7.75532C135.087 7.75532 134.414 8.04198 133.867 8.61532C133.334 9.17532 133.067 9.98198 133.067 11.0353C133.067 12.0887 133.327 12.902 133.847 13.4753C134.38 14.0353 135.047 14.3153 135.847 14.3153ZM150.241 16.5753L146.481 11.8553V16.5753H143.681V1.77532H146.481V10.1953L150.201 5.49532H153.841L148.961 11.0553L153.881 16.5753H150.241ZM156.78 4.17532C156.287 4.17532 155.874 4.02198 155.54 3.71532C155.22 3.39532 155.06 3.00198 155.06 2.53532C155.06 2.06865 155.22 1.68198 155.54 1.37532C155.874 1.05532 156.287 0.895317 156.78 0.895317C157.274 0.895317 157.68 1.05532 158 1.37532C158.334 1.68198 158.5 2.06865 158.5 2.53532C158.5 3.00198 158.334 3.39532 158 3.71532C157.68 4.02198 157.274 4.17532 156.78 4.17532ZM158.16 5.49532V16.5753H155.36V5.49532H158.16ZM167.067 5.33532C168.387 5.33532 169.454 5.75532 170.267 6.59532C171.08 7.42198 171.487 8.58198 171.487 10.0753V16.5753H168.687V10.4553C168.687 9.57532 168.467 8.90198 168.027 8.43532C167.587 7.95532 166.987 7.71532 166.227 7.71532C165.454 7.71532 164.84 7.95532 164.387 8.43532C163.947 8.90198 163.727 9.57532 163.727 10.4553V16.5753H160.927V5.49532H163.727V6.87532C164.1 6.39532 164.574 6.02198 165.147 5.75532C165.734 5.47532 166.374 5.33532 167.067 5.33532ZM178.49 5.31532C179.316 5.31532 180.043 5.48198 180.67 5.81532C181.296 6.13532 181.79 6.55532 182.15 7.07532V5.49532H184.97V16.6553C184.97 17.682 184.763 18.5953 184.35 19.3953C183.936 20.2087 183.316 20.8487 182.49 21.3153C181.663 21.7953 180.663 22.0353 179.49 22.0353C177.916 22.0353 176.623 21.6687 175.61 20.9353C174.61 20.202 174.043 19.202 173.91 17.9353H176.69C176.836 18.442 177.15 18.842 177.63 19.1353C178.123 19.442 178.716 19.5953 179.41 19.5953C180.223 19.5953 180.883 19.3487 181.39 18.8553C181.896 18.3753 182.15 17.642 182.15 16.6553V14.9353C181.79 15.4553 181.29 15.8887 180.65 16.2353C180.023 16.582 179.303 16.7553 178.49 16.7553C177.556 16.7553 176.703 16.5153 175.93 16.0353C175.156 15.5553 174.543 14.882 174.09 14.0153C173.65 13.1353 173.43 12.1287 173.43 10.9953C173.43 9.87532 173.65 8.88198 174.09 8.01532C174.543 7.14865 175.15 6.48198 175.91 6.01532C176.683 5.54865 177.543 5.31532 178.49 5.31532ZM182.15 11.0353C182.15 10.3553 182.016 9.77532 181.75 9.29532C181.483 8.80198 181.123 8.42865 180.67 8.17532C180.216 7.90865 179.73 7.77532 179.21 7.77532C178.69 7.77532 178.21 7.90198 177.77 8.15532C177.33 8.40865 176.97 8.78198 176.69 9.27532C176.423 9.75532 176.29 10.3287 176.29 10.9953C176.29 11.662 176.423 12.2487 176.69 12.7553C176.97 13.2487 177.33 13.6287 177.77 13.8953C178.223 14.162 178.703 14.2953 179.21 14.2953C179.73 14.2953 180.216 14.1687 180.67 13.9153C181.123 13.6487 181.483 13.2753 181.75 12.7953C182.016 12.302 182.15 11.7153 182.15 11.0353ZM207.69 2.61532V16.5753H204.89V7.49532L201.15 16.5753H199.03L195.27 7.49532V16.5753H192.47V2.61532H195.65L200.09 12.9953L204.53 2.61532H207.69ZM209.738 10.9953C209.738 9.87532 209.958 8.88198 210.398 8.01532C210.851 7.14865 211.458 6.48198 212.218 6.01532C212.991 5.54865 213.851 5.31532 214.798 5.31532C215.625 5.31532 216.345 5.48198 216.958 5.81532C217.585 6.14865 218.085 6.56865 218.458 7.07532V5.49532H221.278V16.5753H218.458V14.9553C218.098 15.4753 217.598 15.9087 216.958 16.2553C216.331 16.5887 215.605 16.7553 214.778 16.7553C213.845 16.7553 212.991 16.5153 212.218 16.0353C211.458 15.5553 210.851 14.882 210.398 14.0153C209.958 13.1353 209.738 12.1287 209.738 10.9953ZM218.458 11.0353C218.458 10.3553 218.325 9.77532 218.058 9.29532C217.791 8.80198 217.431 8.42865 216.978 8.17532C216.525 7.90865 216.038 7.77532 215.518 7.77532C214.998 7.77532 214.518 7.90198 214.078 8.15532C213.638 8.40865 213.278 8.78198 212.998 9.27532C212.731 9.75532 212.598 10.3287 212.598 10.9953C212.598 11.662 212.731 12.2487 212.998 12.7553C213.278 13.2487 213.638 13.6287 214.078 13.8953C214.531 14.162 215.011 14.2953 215.518 14.2953C216.038 14.2953 216.525 14.1687 216.978 13.9153C217.431 13.6487 217.791 13.2753 218.058 12.7953C218.325 12.302 218.458 11.7153 218.458 11.0353ZM223.293 10.9953C223.293 9.87532 223.513 8.88198 223.953 8.01532C224.406 7.14865 225.019 6.48198 225.793 6.01532C226.566 5.54865 227.426 5.31532 228.373 5.31532C229.093 5.31532 229.779 5.47532 230.433 5.79532C231.086 6.10198 231.606 6.51532 231.993 7.03532V1.77532H234.833V16.5753H231.993V14.9353C231.646 15.482 231.159 15.922 230.533 16.2553C229.906 16.5887 229.179 16.7553 228.353 16.7553C227.419 16.7553 226.566 16.5153 225.793 16.0353C225.019 15.5553 224.406 14.882 223.953 14.0153C223.513 13.1353 223.293 12.1287 223.293 10.9953ZM232.013 11.0353C232.013 10.3553 231.879 9.77532 231.613 9.29532C231.346 8.80198 230.986 8.42865 230.533 8.17532C230.079 7.90865 229.593 7.77532 229.073 7.77532C228.553 7.77532 228.073 7.90198 227.633 8.15532C227.193 8.40865 226.833 8.78198 226.553 9.27532C226.286 9.75532 226.153 10.3287 226.153 10.9953C226.153 11.662 226.286 12.2487 226.553 12.7553C226.833 13.2487 227.193 13.6287 227.633 13.8953C228.086 14.162 228.566 14.2953 229.073 14.2953C229.593 14.2953 230.079 14.1687 230.533 13.9153C230.986 13.6487 231.346 13.2753 231.613 12.7953C231.879 12.302 232.013 11.7153 232.013 11.0353ZM247.868 10.7953C247.868 11.1953 247.841 11.5553 247.788 11.8753H239.688C239.754 12.6753 240.034 13.302 240.528 13.7553C241.021 14.2087 241.628 14.4353 242.348 14.4353C243.388 14.4353 244.128 13.9887 244.568 13.0953H247.588C247.268 14.162 246.654 15.042 245.748 15.7353C244.841 16.4153 243.728 16.7553 242.408 16.7553C241.341 16.7553 240.381 16.522 239.528 16.0553C238.688 15.5753 238.028 14.902 237.548 14.0353C237.081 13.1687 236.847 12.1687 236.847 11.0353C236.847 9.88865 237.081 8.88198 237.548 8.01532C238.014 7.14865 238.668 6.48198 239.508 6.01532C240.348 5.54865 241.314 5.31532 242.408 5.31532C243.461 5.31532 244.401 5.54198 245.228 5.99532C246.068 6.44865 246.714 7.09532 247.168 7.93532C247.634 8.76198 247.868 9.71532 247.868 10.7953ZM244.968 9.99532C244.954 9.27532 244.694 8.70198 244.188 8.27532C243.681 7.83532 243.061 7.61532 242.328 7.61532C241.634 7.61532 241.048 7.82865 240.568 8.25532C240.101 8.66865 239.814 9.24865 239.708 9.99532H244.968ZM257.477 4.87532V8.37532H262.177V10.5953H257.477V14.2953H262.777V16.5753H254.677V2.59532H262.777V4.87532H257.477ZM264.601 10.9953C264.601 9.87532 264.821 8.88198 265.261 8.01532C265.715 7.14865 266.321 6.48198 267.081 6.01532C267.855 5.54865 268.715 5.31532 269.661 5.31532C270.488 5.31532 271.208 5.48198 271.821 5.81532C272.448 6.14865 272.948 6.56865 273.321 7.07532V5.49532H276.141V16.5753H273.321V14.9553C272.961 15.4753 272.461 15.9087 271.821 16.2553C271.195 16.5887 270.468 16.7553 269.641 16.7553C268.708 16.7553 267.855 16.5153 267.081 16.0353C266.321 15.5553 265.715 14.882 265.261 14.0153C264.821 13.1353 264.601 12.1287 264.601 10.9953ZM273.321 11.0353C273.321 10.3553 273.188 9.77532 272.921 9.29532C272.655 8.80198 272.295 8.42865 271.841 8.17532C271.388 7.90865 270.901 7.77532 270.381 7.77532C269.861 7.77532 269.381 7.90198 268.941 8.15532C268.501 8.40865 268.141 8.78198 267.861 9.27532C267.595 9.75532 267.461 10.3287 267.461 10.9953C267.461 11.662 267.595 12.2487 267.861 12.7553C268.141 13.2487 268.501 13.6287 268.941 13.8953C269.395 14.162 269.875 14.2953 270.381 14.2953C270.901 14.2953 271.388 14.1687 271.841 13.9153C272.295 13.6487 272.655 13.2753 272.921 12.7953C273.188 12.302 273.321 11.7153 273.321 11.0353ZM283.116 16.7553C282.209 16.7553 281.396 16.5953 280.676 16.2753C279.956 15.942 279.383 15.4953 278.956 14.9353C278.543 14.3753 278.316 13.7553 278.276 13.0753H281.096C281.149 13.502 281.356 13.8553 281.716 14.1353C282.089 14.4153 282.549 14.5553 283.096 14.5553C283.629 14.5553 284.043 14.4487 284.336 14.2353C284.643 14.022 284.796 13.7487 284.796 13.4153C284.796 13.0553 284.609 12.7887 284.236 12.6153C283.876 12.4287 283.296 12.2287 282.496 12.0153C281.669 11.8153 280.989 11.6087 280.456 11.3953C279.936 11.182 279.483 10.8553 279.096 10.4153C278.723 9.97532 278.536 9.38198 278.536 8.63532C278.536 8.02198 278.709 7.46198 279.056 6.95532C279.416 6.44865 279.923 6.04865 280.576 5.75532C281.243 5.46198 282.023 5.31532 282.916 5.31532C284.236 5.31532 285.289 5.64865 286.076 6.31532C286.863 6.96865 287.296 7.85532 287.376 8.97532H284.696C284.656 8.53532 284.469 8.18865 284.136 7.93532C283.816 7.66865 283.383 7.53532 282.836 7.53532C282.329 7.53532 281.936 7.62865 281.656 7.81532C281.389 8.00198 281.256 8.26198 281.256 8.59532C281.256 8.96865 281.443 9.25532 281.816 9.45532C282.189 9.64198 282.769 9.83532 283.556 10.0353C284.356 10.2353 285.016 10.442 285.536 10.6553C286.056 10.8687 286.503 11.202 286.876 11.6553C287.263 12.0953 287.463 12.682 287.476 13.4153C287.476 14.0553 287.296 14.6287 286.936 15.1353C286.589 15.642 286.083 16.042 285.416 16.3353C284.763 16.6153 283.996 16.7553 283.116 16.7553ZM300.375 5.49532L293.515 21.8153H290.535L292.935 16.2953L288.495 5.49532H291.635L294.495 13.2353L297.395 5.49532H300.375Z" fill="#F4EDE5"/>
</svg>
