<svg width="40" height="41" viewBox="0 0 40 41" xmlns="http://www.w3.org/2000/svg">
<g id="Frame" clip-path="url(#clip0_68_908)">
<g id="Group">
<path id="Vector" d="M40 18.4603C39.9949 29.0541 34.0146 36.9185 25.303 39.3223C15.1277 42.1302 4.45531 36.4786 1.05946 26.484C-1.79441 18.0826 1.25747 8.73408 8.50746 3.66838C10.5693 2.22818 13.2986 3.18763 13.8947 5.6077C14.2468 7.03769 13.8253 8.29008 12.629 9.17911C11.195 10.2447 9.93746 11.4614 8.96575 12.97C4.07969 20.5609 8.31761 30.8587 17.1323 32.801C24.5783 34.4423 31.8273 29.543 32.9266 21.9633C33.6492 16.9823 31.9293 12.8332 27.9864 9.66598C27.2056 9.03825 26.4452 8.43808 26.1594 7.42249C25.7633 6.01087 26.2696 4.53188 27.4546 3.66838C28.6366 2.80691 30.1788 2.77527 31.417 3.62755C34.0269 5.42499 36.0764 7.73482 37.5809 10.5203C39.1793 13.4732 39.9939 16.6332 40 18.4603Z"/>
<path id="Vector_2" d="M23.3596 10.1815C23.3596 11.9331 23.3576 13.6846 23.3606 15.4351C23.3627 16.7977 23.0575 18.0644 22.1889 19.1483C20.911 20.7437 18.8788 20.7345 17.606 19.1341C16.8364 18.1654 16.4669 17.0365 16.4577 15.8219C16.4301 12.0811 16.4362 8.34021 16.4546 4.60038C16.4607 3.34595 16.821 2.18542 17.6213 1.1933C18.8828 -0.372442 20.8405 -0.401022 22.1368 1.13104C22.9493 2.09151 23.3208 3.23163 23.3423 4.46871C23.3739 6.37231 23.3504 8.27692 23.3504 10.1815C23.3535 10.1815 23.3566 10.1815 23.3596 10.1815Z" fill="#F4EDE6"/>
</g>
</g>
<defs>
<clipPath id="clip0_68_908">
<rect width="40" height="40.0408"/>
</clipPath>
</defs>
</svg>
