<svg width="349" height="53" viewBox="0 0 349 53" fill="none" xmlns="http://www.w3.org/2000/svg">
<path d="M90.4574 51.3111C84.8664 51.3111 84.881 51.3111 85.9641 45.8811C86.9886 40.7145 87.94 35.5332 88.9206 30.352C88.9792 30.0153 89.0231 29.6787 89.0523 29.3567C89.3743 25.9757 88.6132 24.2194 86.5056 23.3851C84.1492 22.463 80.7096 23.2095 79.1875 25.3903C78.1337 26.8978 77.3287 28.742 76.9481 30.5569C75.6748 36.587 74.6502 42.6611 73.5232 48.7205C73.0549 51.2526 73.0549 51.2672 70.5667 51.3111C68.4298 51.3404 66.2929 51.3551 64.1706 51.3111C62.063 51.2672 61.8727 51.0331 62.2679 48.9108C63.2193 43.7296 64.2292 38.5629 65.2098 33.3817C65.5025 31.8449 65.8392 30.2934 65.9855 28.742C66.41 24.5121 63.5413 22.1557 59.4285 23.3119C56.5305 24.1169 54.862 26.2099 54.1887 28.9469C53.2812 32.6352 52.6665 36.4114 51.964 40.1583C51.4371 42.9099 50.9833 45.6762 50.4711 48.4278C49.9295 51.2965 49.9149 51.2965 47.0901 51.3258C45.0703 51.3404 43.0358 51.2526 41.0307 51.3551C39.3328 51.4429 38.8352 50.7842 39.1426 49.1743C39.9183 45.1054 40.5916 41.0072 41.338 36.9383C42.6114 30.1032 43.9286 23.2826 45.2166 16.4621C45.7143 13.8569 45.6996 13.8422 48.4513 13.813C50.0173 13.7983 51.5981 13.813 53.1641 13.813C54.7302 13.813 56.4427 13.4471 55.8133 16.1694C55.5645 17.2379 56.5305 16.5792 56.8379 16.2865C59.0626 14.2228 61.6825 13.0958 64.6536 12.7006C69.2641 12.0859 73.2012 13.169 75.543 17.5013C76.4505 19.1845 76.9481 18.5259 77.8702 17.6184C81.8513 13.6666 86.5642 11.7785 92.2284 12.847C98.1854 13.974 101.683 18.4966 100.835 24.4536C99.8978 30.996 98.6537 37.4945 97.5267 44.0076C97.2194 45.7786 96.7218 47.5203 96.5461 49.2913C96.3998 50.8867 95.6826 51.4429 94.1604 51.3404C92.931 51.2526 91.7015 51.3111 90.4574 51.3111Z" fill="#F4EDE6"/>
<path d="M32.7322 15.7596C31.8394 15.7596 30.9319 15.7889 30.0391 15.7596C29.0292 15.7304 27.8729 15.9353 27.0826 15.4815C26.5264 15.1742 26.541 13.9155 26.2337 13.1251C25.2823 10.7247 22.1648 10.2417 19.6327 12.0713C16.9982 13.974 17.0128 16.5353 19.7644 18.2478C21.4769 19.3162 23.3211 20.1359 25.1067 21.1019C26.8777 22.0679 28.6779 22.99 30.3904 24.0438C35.0886 26.8978 36.6254 31.1277 35.7326 36.4407C34.2397 45.1932 27.2729 51.6039 18.3886 52.0284C15.2857 52.1747 12.0657 52.0723 9.05067 51.399C1.07389 49.6134 -0.609287 42.705 0.283527 36.6017C0.473799 35.2844 1.20561 34.7136 2.58143 34.7575C5.2745 34.8307 7.96758 34.8307 10.6753 34.7575C12.2853 34.7136 13.0317 35.0649 13.1196 36.9676C13.2659 39.9534 14.2612 41.0072 16.3395 41.461C18.5057 41.9293 20.8329 40.9048 22.1355 38.9289C23.6723 36.6017 23.3211 34.7283 20.8622 33.3232C18.6228 32.0498 16.2371 31.0399 13.9392 29.869C12.4463 29.1079 10.8948 28.3761 9.5483 27.3955C5.25987 24.2633 3.70842 19.7261 5.18669 14.6034C7.46995 6.7583 13.2074 2.71869 20.7743 0.889149C24.2139 0.0548804 27.668 0.186607 31.0637 1.3136C36.9182 3.27487 39.7283 7.51939 39.3039 13.6227C39.2014 15.1303 38.7916 15.9206 37.1377 15.8035C35.6595 15.6718 34.1958 15.7596 32.7322 15.7596Z" fill="#F4EDE6"/>
<path d="M214.515 36.4847C210.578 36.4847 206.64 36.4408 202.703 36.4993C200.903 36.5286 200.537 37.0701 201.049 38.7679C201.649 40.7438 203.084 41.944 204.972 42.6466C208.192 43.8321 211.266 43.3784 213.842 41.2122C215.378 39.9242 216.93 39.5876 218.774 39.6607C220.911 39.7339 223.048 39.6754 225.185 39.7047C226.136 39.7193 226.765 39.9535 226.034 41.0805C220.925 49.0133 210.87 54.3556 202.191 52.1455C194.536 50.1989 189.355 43.393 189.911 35.4601C190.745 23.5462 200.713 13.4471 212.568 12.5104C223.194 11.6762 231.449 20.6482 229.766 31.1863C228.917 36.5139 228.917 36.5139 223.619 36.5139C220.589 36.47 217.544 36.47 214.515 36.4847ZM210.709 27.8639C212.612 27.8785 214.515 27.9224 216.418 27.8493C217.281 27.82 218.13 27.5858 218.979 27.4541C218.642 26.532 218.364 25.5806 217.969 24.6878C217.793 24.3073 217.413 23.9853 217.076 23.6926C213.315 20.3408 205.148 22.0972 203.069 26.693C202.63 27.659 203.186 27.8493 203.977 27.8493C206.231 27.8639 208.47 27.8639 210.709 27.8639Z" fill="#F4EDE6"/>
<path d="M177.617 51.399C175.611 51.2966 173.153 51.882 171.704 50.916C170.284 49.9647 169.83 47.4911 169.04 45.647C167.576 42.2513 166.186 38.8264 164.766 35.4162C164.634 35.1235 164.415 34.86 164.224 34.5819C163.961 34.9186 163.522 35.2113 163.449 35.5772C162.673 39.6461 161.956 43.7296 161.224 47.8131C161.122 48.3693 161.019 48.9109 160.931 49.467C160.726 50.7404 160.126 51.3844 158.692 51.3258C156.335 51.2234 153.979 51.2087 151.623 51.3258C149.778 51.4137 149.559 50.4916 149.822 49.0426C150.54 45.0761 151.257 41.1097 151.988 37.1433C153.979 26.3563 155.984 15.5547 157.989 4.76779C158.106 4.10915 158.385 3.46516 158.443 2.80652C158.546 1.57707 159.307 1.41607 160.302 1.43071C162.878 1.44535 165.469 1.48926 168.045 1.41607C169.479 1.37217 169.698 1.94298 169.45 3.23098C168.367 8.95377 167.371 14.6912 166.332 20.4286C166.039 22.0825 165.673 23.7218 165.381 25.3757C165.322 25.6831 165.439 26.0197 165.483 26.3417C165.834 26.1807 166.274 26.1075 166.522 25.8441C169.654 22.6241 172.845 19.448 175.846 16.1256C177.397 14.4131 179.022 13.5496 181.378 13.7252C183.94 13.9155 186.545 13.7545 189.121 13.7837C189.545 13.7837 189.97 13.9008 190.394 13.974C190.16 14.4424 190.028 15.0132 189.677 15.3645C185.345 19.5944 180.968 23.8096 176.607 28.0102C173.914 30.6008 174.119 30.0593 175.626 33.3817C178.041 38.6801 180.559 43.9345 182.974 49.2328C183.852 51.1648 183.764 51.2527 181.627 51.3112C180.28 51.3551 178.934 51.3258 177.587 51.3258C177.617 51.3405 177.617 51.3697 177.617 51.399Z" fill="#F4EDE6"/>
<path d="M122.248 52.1747C113.993 52.1454 108.416 48.3546 106.309 41.3292C105.313 38.0214 105.299 34.6404 106.133 31.3473C109.251 19.082 121.004 10.271 134.513 13.008C141.085 14.3399 145.783 19.9749 146.441 26.7368C147.642 38.9435 136.65 52.6577 122.248 52.1747ZM135.128 30.7911C135.215 25.7416 131.878 22.5948 126.814 23.0338C120.799 23.5608 116.452 29.6934 116.876 35.021C117.227 39.3972 121.033 42.3684 125.248 41.8415C130.693 41.1536 135.04 36.2797 135.128 30.7911Z" fill="#F4EDE6"/>
<path d="M239.016 51.3111C238.562 51.3111 238.123 51.3111 237.67 51.3111C232.679 51.3111 232.722 51.3258 233.674 46.2909C236.308 32.3132 238.914 18.3209 241.519 4.32864C242.046 1.47457 242.031 1.44529 244.856 1.44529C250.359 1.43066 255.862 1.40139 261.366 1.50384C263.371 1.54775 265.405 1.78193 267.367 2.19175C272.694 3.27483 276.163 7.31445 276.617 12.7591C277.685 25.4195 268.977 35.0502 255.789 35.7528C254.004 35.8552 252.189 35.8991 250.403 35.782C248.822 35.6796 248.281 36.3382 248.047 37.8458C247.52 41.2706 246.788 44.6809 246.159 48.0912C245.558 51.3111 245.573 51.3111 242.382 51.3258C241.255 51.3258 240.143 51.3111 239.016 51.3111ZM254.648 24.4243C255.658 24.4243 256.682 24.4975 257.677 24.4096C261.205 24.0876 263.4 22.1117 264.19 18.6283C264.878 15.584 263.634 13.4617 260.59 12.9348C258.614 12.5982 256.565 12.6274 254.56 12.4957C252.979 12.3932 252.423 13.1982 252.247 14.6911C252.042 16.5792 251.618 18.4527 251.237 20.3115C250.403 24.5121 250.403 24.5121 254.648 24.4243Z" fill="#F4981D"/>
<path d="M308.729 51.3112C307.602 51.3112 306.489 51.2673 305.362 51.3258C304.177 51.3697 303.43 51.1209 303.577 49.6719C303.752 47.8717 302.991 48.5449 302.157 49.1743C297.532 52.6577 292.351 53.4627 286.862 51.9406C280.92 50.2867 277.524 46.086 276.763 40.1583C274.875 25.3903 285.515 14.0326 296.785 12.7153C301.25 12.203 305.289 12.7153 308.48 16.228C309.446 17.2964 309.665 16.6817 309.812 15.7304C310.031 14.2521 310.836 13.6813 312.358 13.7545C314.598 13.8716 316.852 13.7398 319.091 13.7984C321.126 13.8423 321.36 14.135 320.979 16.2573C320.306 20.1213 319.56 23.9706 318.828 27.8199C317.584 34.4209 316.31 41.0219 315.081 47.6228C314.393 51.3112 314.437 51.3112 310.734 51.3258C310.075 51.3112 309.402 51.3112 308.729 51.3112ZM295.717 42.0757C301.703 42.0464 306.87 36.9091 306.958 30.8936C307.031 26.1953 303.972 23.0339 299.274 22.99C293.77 22.9314 288.779 27.2345 288.048 32.6646C287.272 38.3873 290.302 42.105 295.717 42.0757Z" fill="#F4981D"/>
<path d="M342.934 1.40137C343.607 1.40137 344.28 1.40137 344.954 1.40137C348.569 1.416 348.554 1.40137 347.91 4.82626C345.232 19.243 342.568 33.6598 339.904 48.0765C339.319 51.2526 339.319 51.2526 336.099 51.2672C334.079 51.2819 332.059 51.2233 330.039 51.2819C328.678 51.3111 328.254 50.711 328.488 49.4377C329.073 46.247 329.6 43.0416 330.186 39.8509C332.322 28.2882 334.503 16.7402 336.626 5.19217C337.313 1.43064 337.27 1.416 340.914 1.416C341.587 1.40137 342.26 1.40137 342.934 1.40137Z" fill="#F4981D"/>
</svg>
