<svg width="90" height="105" viewBox="0 0 90 105" fill="none" xmlns="http://www.w3.org/2000/svg">
<g id="Frame" clip-path="url(#clip0_68_913)">
<g id="Group">
<path id="Vector" d="M55.1293 50.4704C55.0888 50.4353 55.0483 50.4002 55.0078 50.3651C55.0425 50.254 55.0714 50.137 55.1061 50.02C55.1177 50.1662 55.1293 50.3183 55.1293 50.4704Z" fill="#D1271C"/>
<path id="Vector_2" d="M77.6621 53.6639C77.6332 55.5238 77.425 56.8633 76.8467 57.6763C74.9381 55.3308 72.3065 53.6346 69.1429 52.8216C69.3164 51.219 69.3164 49.1134 68.686 46.7622C67.645 42.8843 65.4645 40.4395 64.4351 39.4217C68.258 44.0073 67.2343 49.9323 64.25 52.0262C63.4345 51.9502 62.6306 51.9092 61.844 51.8917C60.7625 51.8741 59.6578 51.8566 58.4722 51.8449C58.5994 48.3355 57.8186 45.2765 56.1414 42.7439C54.3542 40.03 51.6302 38.0414 48.0386 36.8248C46.4307 36.2809 44.7882 35.9299 43.1399 35.772C43.1514 34.6081 43.0589 32.8417 42.44 30.8297C41.2197 26.8641 39.1376 25.7937 37.6628 22.4774C35.8583 18.4182 36.5003 14.4468 36.7027 13.201C37.7727 6.59755 42.5557 2.66122 44.0132 1.54993C43.6315 2.72556 41.8038 8.7909 45.0137 15.2481C48.0386 21.3369 53.4347 23.5478 54.6723 24.0215C55.1003 22.9804 55.6498 21.8399 56.3612 20.6525C58.05 17.8509 60.0164 15.8564 61.6127 14.517C61.2309 15.7921 60.7856 17.9035 61.1326 20.4244C61.3351 21.8867 61.7746 23.2904 62.4918 24.7351C65.1985 30.2097 69.8022 32.1925 73.5674 37.7197C77.8183 43.9547 77.72 49.903 77.6621 53.6639Z" fill="#D1271C"/>
<path id="Vector_3" d="M26.2113 66.3795C26.0551 66.2742 25.8989 66.1631 25.7428 66.0519C21.515 62.9286 19.9765 58.3957 21.4398 53.2896C21.7868 52.0905 22.209 50.9792 22.7122 49.9498C22.5329 54.2195 23.2848 59.659 26.2113 66.3795Z" fill="#D1271C"/>
<path id="Vector_4" d="M17.4549 76.9894C16.4775 79.8145 18.1432 82.3412 18.334 82.6219C17.7326 82.0663 17.16 81.5165 16.6221 80.9608C16.2924 79.095 16.3214 77.1298 16.5932 75.2406C16.7783 73.9597 17.4549 73.3923 18.7389 73.3923H18.8661C19.5197 73.4099 20.1732 73.4216 20.8326 73.4333C19.2479 74.1293 18.0044 75.3985 17.4549 76.9894Z" fill="#D1271C"/>
<path id="Vector_5" d="M13.2907 74.7611C13.2039 75.3752 13.1288 76.0595 13.0883 76.7848C-2.00114 55.7579 22.1223 34.6082 27.7555 13.283C28.5189 17.2076 29.2129 23.232 27.9579 30.2566C26.9458 35.9125 25.2801 38.8077 24.0713 42.4808C21.3241 45.0953 19.375 48.3941 18.2415 52.348C16.3849 58.811 18.4034 64.7945 23.7764 68.7718C24.4299 69.2514 25.0892 69.6667 25.7601 70.0468C24.7769 70.0644 23.7937 70.0761 22.8336 70.0761C21.5323 70.0761 20.231 70.0585 18.9644 70.0234C18.8892 70.0234 18.8198 70.0234 18.7446 70.0234C15.795 70.0234 13.7071 71.8366 13.2907 74.7611Z" fill="#D1271C"/>
<path id="Vector_6" d="M72.3413 81.8441C68.7034 86.2542 63.0933 89.0734 56.2744 89.4419C55.6383 89.477 55.0078 89.5004 54.3716 89.5179C61.659 87.9446 67.8474 85.2482 72.3413 81.8441Z" fill="#D1271C"/>
<path id="Vector_7" d="M87.0027 64.9406C85.8575 71.7663 81.8495 78.013 75.9676 82.5985C79.1833 78.013 80.6581 72.281 80.1491 66.2098C80.0335 64.8236 79.7616 63.5018 79.351 62.2735C80.178 59.9281 81.0629 56.4714 81.0225 52.2484C80.9588 45.7444 78.7264 40.8664 77.4135 38.4508C78.6917 39.7376 89.3624 50.8856 87.0027 64.9406Z" fill="#D1271C"/>
<path id="Vector_8" d="M32.1279 94.0684H32.1568C31.8329 95.8289 31.5033 97.5894 31.1736 99.3499L31.1447 99.4962C30.896 100.836 30.7109 101.806 30.6473 102.678C30.6184 103.046 30.5547 103.895 30.8092 104.836C28.2124 104.579 25.6387 104.052 23.678 103.509C19.9823 102.485 9.78005 99.6424 3.92705 89.7577C-1.96643 79.7911 -1.15673 66.5608 5.87612 55.9275C5.68527 56.6645 2.111 71.3336 12.6545 82.2945C13.0131 82.6688 13.3832 83.0314 13.7592 83.3765C13.9847 84.1544 14.2739 84.9323 14.6383 85.6985C16.5122 89.6232 19.9245 92.2493 24.5167 93.2963C26.8012 93.8169 29.2939 94.0684 32.1279 94.0684Z" fill="#D1271C"/>
<path id="Vector_9" d="M41.6072 102.204C40.6587 103.906 38.4378 104.69 35.7715 104.924H35.7658C33.5275 104.731 33.7242 103.854 34.4471 99.9757C34.823 97.9637 35.1932 95.9517 35.5691 93.9396C35.679 93.3664 35.7831 92.7874 35.8872 92.2142C35.9971 91.6352 36.107 91.0503 36.2111 90.4712C35.6443 90.5531 35.0717 90.6116 34.4818 90.635C34.4702 90.635 34.4645 90.635 34.4529 90.635C33.8977 90.6642 33.3366 90.6818 32.7756 90.6876C32.5559 90.6935 32.3361 90.6935 32.1163 90.6935C29.7971 90.6935 27.4605 90.5063 25.2338 90.0033C23.5161 89.6173 22.0933 88.9797 20.925 88.1609C24.6266 89.8512 28.6866 90.6935 32.7872 90.6057C33.354 90.594 33.9266 90.5648 34.4992 90.518C35.0775 90.4712 35.6559 90.401 36.2342 90.3133C37.2868 90.1554 38.3395 89.9331 39.3805 89.6524C39.3921 89.6699 39.4036 89.6933 39.4152 89.7109C39.6755 90.132 39.9647 90.635 40.248 91.214C40.4794 91.6819 40.705 92.1967 40.9189 92.764C41.1387 93.3489 41.3411 93.9806 41.5147 94.6649C41.9137 96.2207 42.8507 99.9874 41.6072 102.204Z" fill="#D1271C"/>
<path id="Vector_10" d="M45.3087 90.5765C46.1474 90.8514 47.2752 91.1789 48.6401 91.4831C48.6401 91.4948 48.6343 91.5123 48.6343 91.524C48.1138 94.9515 47.3966 98.3439 46.7778 101.754C46.5117 103.204 46.3729 104 46.0028 104.438C44.58 104.006 43.458 103.292 42.8507 102.21C42.0237 100.73 42.4169 98.3029 42.9375 94.6707C43.0994 93.5185 43.3018 92.5008 43.5043 91.641C43.6488 91.0327 43.7819 90.5063 43.9091 90.0735C44.1694 90.1729 44.6494 90.3601 45.3087 90.5765Z" fill="#D1271C"/>
<path id="Vector_11" d="M89.8193 65.4788C89.4665 70.0234 88.0206 80.2415 80.525 89.7577C78.6049 92.1908 72.0578 100.385 60.7683 103.509C57.7376 104.345 53.238 105.158 49.444 104.977C49.71 104.21 49.872 103.345 50.0455 102.386L50.0512 102.368C50.2479 101.28 50.4619 100.169 50.6701 99.0984C51.0576 97.0747 51.4567 94.9925 51.7921 92.8985C52.2259 92.9102 52.6712 92.9161 53.1397 92.9161C54.1229 92.9161 55.1755 92.8868 56.4479 92.8167C58.611 92.6997 60.6989 92.3546 62.6711 91.8048H62.6768C65.7017 91.255 68.9 90.2431 72.1388 88.5469C85.95 81.3001 89.3681 67.4615 89.8193 65.4788Z" fill="#D1271C"/>
<path id="Vector_12" d="M35.8583 36.3686C32.8682 37.1173 30.2309 38.1818 27.9464 39.5504C28.6288 38.094 30.0805 35.8656 31.0232 32.6311C32.1684 28.7065 32.018 25.1387 31.6652 22.6002C35.3725 27.5426 36.8531 32.7189 35.8583 36.3686Z" fill="#D1271C"/>
<path id="Vector_13" d="M49.3746 17.2953C46.3382 14.0491 45.7483 10.3 45.6095 9.11848C45.0658 4.50368 46.905 1.07035 47.5296 0C47.0438 1.85996 46.5291 4.86631 47.1016 8.46925C48.1253 14.8738 51.9425 18.892 53.3942 20.2782C52.3705 19.7694 50.8378 18.857 49.3746 17.2953Z" fill="#D1271C"/>
<path id="Vector_14" d="M41.0173 35.6902C39.8432 35.7019 38.6576 35.8071 37.4719 36.0177C37.6396 35.5381 37.7958 35.0234 37.9288 34.4677C38.4378 32.3036 38.3973 30.3735 38.2238 28.9113C38.7732 29.7827 41.237 33.7542 41.0173 35.6902Z" fill="#D1271C"/>
<g id="Group_2">
<path id="Vector_15" d="M76.8293 66.4907C76.3782 61.0571 72.9543 57.0271 67.7028 55.9509C65.7595 55.5532 63.7584 55.3076 61.7804 55.2725C60.4501 55.2491 59.1199 55.2315 57.7897 55.2198C57.1246 55.214 56.4595 55.2081 55.7943 55.2081C54.6723 55.2023 53.5503 55.2023 52.4283 55.2023C51.2831 55.2023 50.138 55.2081 48.9986 55.2081C48.9928 55.2081 48.9871 55.2081 48.9813 55.2081C48.0675 55.2374 47.1479 55.2198 46.2283 55.214C45.9796 55.214 45.7367 55.214 45.488 55.214C43.776 55.214 43.1225 55.2315 42.7581 55.8983C42.521 56.3194 42.3995 56.9979 42.1971 58.1033C42.1798 58.2145 42.1566 58.3256 42.1335 58.4367C42.0294 59.0158 41.9195 59.5948 41.8154 60.1739C41.5783 60.0452 41.3411 59.9165 41.104 59.7878C40.8264 59.6358 40.5546 59.4895 40.277 59.3492L37.8363 72.6145C38.698 73.3398 39.1029 74.1645 39.074 75.0886C39.0103 75.4337 38.9467 75.7788 38.8831 76.1239C38.7327 76.5801 38.4898 77.0656 38.1659 77.5627C37.7437 78.212 37.2174 78.7559 36.6217 79.177C35.945 82.8385 35.2684 86.4999 34.5859 90.1613C34.5628 90.2841 34.5396 90.4011 34.5165 90.524C34.5107 90.5649 34.4991 90.6 34.4934 90.6351C35.0775 90.6059 35.6559 90.5532 36.2226 90.4713C36.1185 91.0504 36.0087 91.6353 35.8988 92.2143C35.7947 92.7875 35.6906 93.3665 35.5807 93.9397C35.2047 95.9518 34.8346 97.9638 34.4587 99.9758C33.7357 103.854 33.5391 104.731 35.7773 104.924H35.7831C36.4251 104.983 37.2695 104.983 38.3568 104.983H39.7391C40.3753 104.983 41.0057 104.983 41.6419 104.983C42.1161 104.983 42.5904 104.983 43.0646 104.977C44.7882 104.965 45.5632 104.959 46.0085 104.433C46.3786 103.994 46.5232 103.199 46.7835 101.748C47.4081 98.3381 48.1195 94.9458 48.64 91.5183C48.64 91.5066 48.6458 91.489 48.6458 91.4773C48.8598 90.1087 49.3341 89.4595 50.6643 89.4595C50.7626 89.4595 50.8552 89.4595 50.9593 89.4712C51.688 89.5179 52.4167 89.5355 53.1455 89.5355C53.5561 89.5355 53.9609 89.5296 54.3716 89.5179C55.0078 89.5004 55.644 89.477 56.2744 89.4419C63.0933 89.0734 68.7033 86.2542 72.3412 81.8441C75.6494 77.8318 77.3325 72.5034 76.8293 66.4907ZM64.5739 72.3572C63.8046 75.8314 61.6358 77.8084 58.1483 78.1301C57.7839 78.1652 57.4138 78.1769 57.0436 78.1769C56.4132 78.1769 55.7828 78.1476 55.1582 78.1476C54.8516 78.1535 54.5682 78.1593 54.308 78.1652C54.1113 78.1652 53.932 78.171 53.7585 78.171C53.29 78.171 52.8968 78.1593 52.5787 78.1184C51.0229 77.9254 51.1964 77.089 51.7979 74.0475C52.1622 72.1817 52.5844 70.3218 52.7927 68.4384C52.8042 68.3097 52.8216 68.1927 52.8447 68.0758C52.9893 67.2101 53.3132 66.6252 53.9667 66.3737C54.2039 66.2801 54.4815 66.2334 54.8111 66.2334C54.8979 66.2334 54.9846 66.2334 55.0714 66.2451C57.0552 66.3796 59.0736 66.3386 61.0227 66.6837C64.0244 67.1984 65.2505 69.3216 64.5739 72.3572Z" fill="#F4981D"/>
<path id="Vector_16" d="M36.616 79.1769C36.0492 79.5805 35.4188 79.873 34.7594 80.0426C34.1001 83.6163 33.5102 86.8039 32.9434 89.8512C32.8971 90.1086 32.8451 90.3601 32.7988 90.6174C32.793 90.6408 32.7872 90.6701 32.7814 90.6935C33.3424 90.6876 33.9035 90.6701 34.4587 90.6408C34.4702 90.6408 34.476 90.6408 34.4876 90.6408C35.0717 90.6116 35.6501 90.5589 36.2169 90.4771C36.2285 90.4303 36.2342 90.3776 36.2458 90.325C37.1249 85.5932 37.9982 80.8614 38.8716 76.1238C38.7212 76.58 38.4783 77.0655 38.1544 77.5626C37.738 78.206 37.2117 78.75 36.616 79.1769Z" fill="white"/>
<path id="Vector_17" d="M40.2712 59.3433C39.7565 59.0743 39.2359 58.8111 38.7212 58.5479C38.6576 58.8871 38.5998 59.2205 38.5361 59.5597L36.3094 71.6378C36.5061 71.743 36.7027 71.8542 36.8994 71.9653C37.2522 72.17 37.5587 72.3806 37.8305 72.6087C38.6923 73.3339 39.0971 74.1586 39.0682 75.0828L41.8154 60.168C41.5783 60.0393 41.3412 59.9107 41.1041 59.782C40.8207 59.6299 40.5488 59.4837 40.2712 59.3433Z" fill="white"/>
<path id="Vector_18" d="M55.1293 51.8625C55.1293 51.8508 55.1293 51.8391 55.1293 51.8274C54.2733 51.8274 53.3768 51.8215 52.4225 51.8215C50.8899 51.8215 49.363 51.8215 47.8304 51.8274C47.0438 51.8274 46.2572 51.8274 45.4707 51.8332C45.0138 51.8332 44.58 51.8391 44.1578 51.8625H55.1293Z" fill="white"/>
</g>
<g id="Group_3">
<g id="Group_4">
<path id="Vector_19" d="M48.9929 55.2023C48.9871 55.2023 48.9813 55.2023 48.9755 55.2023C48.0617 55.2315 47.1421 55.214 46.2225 55.2081C45.9738 55.2081 45.7309 55.2081 45.4822 55.2081C43.7703 55.2081 43.1167 55.2257 42.7524 55.8924C43.3944 56.1322 44.0595 56.1673 44.5916 56.1673C44.794 56.1673 45.0022 56.1615 45.2046 56.1556C45.3781 56.1498 45.5516 56.1439 45.7194 56.1439C45.7888 56.1439 45.8524 56.1439 45.9218 56.1439C46.2457 56.1556 46.5927 56.1615 47.0091 56.1615C47.2867 56.1615 47.5586 56.1615 47.8362 56.1556C48.1022 56.1556 48.374 56.1498 48.6401 56.1498H50.3115V56.1322C50.6412 56.1264 50.9709 56.1205 51.2948 56.1205C51.902 56.1205 52.3936 56.1381 52.8448 56.1673C52.9894 56.179 53.1339 56.1849 53.2727 56.1849C54.3658 56.1849 55.2103 55.8573 55.7886 55.2023C54.6666 55.1964 53.5446 55.1964 52.4226 55.1964C51.2832 55.1964 50.138 55.2023 48.9929 55.2023Z" fill="#60190D"/>
<path id="Vector_20" d="M47.1826 61.2734C45.7541 60.3961 44.2735 59.589 42.8391 58.811C42.602 58.6824 42.3649 58.5537 42.1277 58.425C42.0236 59.0041 41.9137 59.5831 41.8096 60.1621C41.5725 60.0335 41.3354 59.9048 41.0983 59.7761C40.8206 59.624 40.5488 59.4778 40.2712 59.3374C39.7565 59.0684 39.2359 58.8052 38.7212 58.542C37.7438 58.039 36.7663 57.5243 35.8352 56.9394C33.1227 55.2315 33.1169 52.6814 35.7079 50.7805C36.7259 50.0318 37.8479 49.675 38.8774 49.675C40.3637 49.675 41.6651 50.4237 42.2145 51.8333C42.2203 51.845 42.2203 51.8508 42.2261 51.8625H55.1235C55.1235 51.8508 55.1235 51.8391 55.1235 51.8274C55.1408 51.3595 55.1408 50.9091 55.1235 50.4705C55.1177 50.3184 55.1119 50.1663 55.0946 50.0143C54.7418 45.1479 51.9946 41.7263 46.9686 40.0301C45.0542 39.3809 43.1225 39.0592 41.1792 39.0592C39.7218 39.0592 38.2643 39.2405 36.8126 39.5973C30.4911 41.1531 25.4536 44.2765 22.7006 49.9499C22.1975 50.9793 21.7753 52.0906 21.4282 53.2897C19.965 58.3958 21.5034 62.9287 25.7312 66.052C25.8874 66.1631 26.0378 66.2743 26.1997 66.3796C27.4085 67.1984 28.7561 67.8418 30.0632 68.5144C32.1279 69.5848 34.2678 70.5089 36.2979 71.6319C36.4945 71.7372 36.6912 71.8483 36.8878 71.9594C37.2406 72.1642 37.5471 72.3747 37.819 72.6028C38.6807 73.3281 39.0856 74.1528 39.0567 75.0769C38.993 75.422 38.9294 75.7671 38.8658 76.1122C38.7154 76.5684 38.4725 77.0539 38.1486 77.551C37.7264 78.2002 37.2001 78.7442 36.6044 79.1653C36.0376 79.5689 35.4072 79.8613 34.7479 80.031C34.3315 80.1362 33.9035 80.1947 33.4697 80.1947C33.1169 80.1947 32.7699 80.1596 32.4229 80.0836C30.3813 79.6332 29.3865 78.5687 29.2477 75.5975C29.1609 73.7843 28.4958 73.3807 27.0673 73.3807C26.9921 73.3807 26.9111 73.3807 26.8359 73.3866C25.4941 73.4217 24.1581 73.4392 22.8163 73.4392C22.1512 73.4392 21.4861 73.4334 20.821 73.4275C20.1674 73.4158 19.5139 73.4041 18.8545 73.3866H18.7389C17.4549 73.3866 16.7724 73.9539 16.5932 75.2348C16.3213 77.124 16.2982 79.0893 16.6221 80.9551C17.1137 83.7918 18.4266 86.4004 20.9424 88.161C22.1049 88.974 23.5277 89.6115 25.2512 90.0034C27.4779 90.5064 29.8145 90.6936 32.1337 90.6936C32.3535 90.6936 32.5732 90.6936 32.793 90.6877C33.354 90.6819 33.915 90.6643 34.4703 90.6351C34.4818 90.6351 34.4876 90.6351 34.4992 90.6351C35.0833 90.6058 35.6617 90.5532 36.2285 90.4713C36.1244 91.0503 36.0145 91.6352 35.9046 92.2143C37.4141 92.0447 38.8774 91.7113 40.2712 91.2141C42.7061 90.3543 44.9444 89.0149 46.8934 87.231C49.5828 84.7686 51.5203 81.657 52.5961 78.1125C51.0403 77.9195 51.2138 77.0831 51.8153 74.0417C52.1796 72.1758 52.6018 70.3159 52.81 68.4325C52.8216 68.3039 52.839 68.1869 52.8621 68.0699C51.9252 65.2975 50.0339 63.0281 47.1826 61.2734Z" fill="#60190D"/>
<path id="Vector_21" d="M55.7886 55.2023C54.6666 55.1964 53.5446 55.1964 52.4226 55.1964C51.2774 55.1964 50.1323 55.2023 48.9929 55.2023C48.9871 55.2023 48.9813 55.2023 48.9755 55.2023C48.0617 55.2315 47.1421 55.214 46.2226 55.2081C45.9739 55.2081 45.7309 55.2081 45.4823 55.2081C43.7703 55.2081 43.1168 55.2257 42.7524 55.8924C42.5153 56.3136 42.3938 56.992 42.1914 58.0975C42.174 58.2086 42.1509 58.3197 42.1278 58.4309C42.0237 59.0099 41.9138 59.589 41.8097 60.168C43.325 60.9927 44.8461 61.8116 46.3151 62.7181C50.9593 65.5666 52.4746 69.7895 51.584 75.0886C50.4041 82.0898 45.7483 87.5936 39.4268 89.7109C38.3973 90.056 37.3274 90.3134 36.2169 90.4655C36.1128 91.0445 36.0029 91.6294 35.8931 92.2084C35.7889 92.7816 35.6848 93.3607 35.575 93.9339C37.4315 93.7701 39.2244 93.3724 40.9306 92.7582C41.8155 92.4424 42.6714 92.0681 43.5043 91.6352C44.1231 91.3135 44.7246 90.9568 45.3145 90.5707C46.2573 89.9508 47.1595 89.2547 48.0039 88.4768C51.0287 85.7103 53.1802 82.1775 54.3138 78.1593C54.1172 78.1593 53.9379 78.1652 53.7644 78.1652C53.2959 78.1652 52.9026 78.1535 52.5845 78.1125C51.0287 77.9195 51.2022 77.0831 51.8037 74.0417C52.1681 72.1758 52.5903 70.3159 52.7985 68.4325C52.8101 68.3039 52.8274 68.1869 52.8506 68.0699C52.9951 67.2043 53.319 66.6194 53.9726 66.3679C52.8216 63.7475 50.8379 61.5425 48.056 59.8346C46.9108 59.1327 45.7425 58.4835 44.5974 57.8577C44.5974 57.8577 44.5974 57.8577 44.6032 57.8577C44.8403 57.8577 45.0658 57.8518 45.2625 57.846C45.436 57.8401 45.5921 57.8343 45.7309 57.8343C45.7772 57.8343 45.8293 57.8343 45.8755 57.8343C46.2226 57.846 46.5811 57.8518 47.0207 57.8518C47.2983 57.8518 47.5817 57.8518 47.8651 57.846C48.1254 57.846 48.3914 57.8401 48.6517 57.8401H51.983V57.8109C52.2548 57.8167 52.4978 57.8284 52.7291 57.846C52.9142 57.8577 53.0993 57.8635 53.2785 57.8635C55.4763 57.8635 56.7024 56.8166 57.3502 55.9334C57.5237 55.6994 57.6683 55.4538 57.7898 55.2081C57.1246 55.2081 56.4595 55.2081 55.7886 55.2023Z" fill="white"/>
</g>
</g>
<g id="Group_5">
<g id="Group_6">
<path id="Vector_22" d="M76.8293 66.4907C76.3782 61.057 72.9543 57.0271 67.7028 55.9509C65.7595 55.5532 63.7584 55.3075 61.7804 55.2724C57.5352 55.1905 53.2843 55.1964 49.0391 55.2022C49.0218 55.2022 48.9986 55.2022 48.9813 55.2022C48.0501 55.2315 47.1132 55.2081 46.182 55.2081C45.9507 55.2081 45.7251 55.2081 45.4938 55.2081C42.7003 55.2139 42.7292 55.249 42.2029 58.0916C42.0757 58.7818 41.9484 59.472 41.8212 60.168C40.9074 65.1396 39.9878 70.1112 39.074 75.0828C39.0104 75.4278 38.9467 75.7729 38.8831 76.1239C37.9982 80.9083 37.1191 85.6927 36.2284 90.4771C35.6443 93.6473 35.0544 96.8115 34.4644 99.9817C33.5275 104.994 33.4812 104.988 38.4089 104.988H39.7391C40.8495 104.988 41.9542 104.994 43.0647 104.988C46.2109 104.971 46.2052 104.971 46.7893 101.76C47.4139 98.3498 48.1253 94.9574 48.6458 91.53C48.8714 90.0326 49.3977 89.3775 50.9651 89.477C52.7291 89.5881 54.5104 89.5413 56.2802 89.4477C69.2875 88.7342 77.8877 79.1244 76.8293 66.4907ZM64.5739 72.3572C63.8046 75.8314 61.6358 77.8084 58.1483 78.1301C57.1593 78.2236 56.1529 78.1418 55.1582 78.1418C50.9593 78.2295 50.9708 78.2295 51.7979 74.0358C52.1623 72.17 52.5845 70.31 52.7927 68.4267C52.9546 66.9352 53.5156 66.128 55.0714 66.2333C57.0552 66.3678 59.0737 66.3269 61.0227 66.672C64.0244 67.1984 65.2505 69.3216 64.5739 72.3572Z" fill="#F4981D"/>
</g>
</g>
<g id="Group_7">
<g id="Group_8">
<path id="Vector_23" d="M47.2693 69.0525C47.252 69.0115 47.2404 68.9764 47.2346 68.9472C47.2115 68.9238 47.1884 68.9004 47.1537 68.8653C47.119 68.8302 47.0843 68.7834 47.0438 68.7425C45.488 68.7249 43.9843 67.4031 43.9785 65.7771C43.9785 65.7537 43.9785 65.7303 43.9785 65.7127C43.9727 65.701 43.9669 65.6952 43.9611 65.6776C43.9438 65.6367 43.8628 65.4495 43.8108 65.315C43.8108 65.3091 43.805 65.3091 43.805 65.3033C43.7992 65.3267 43.7529 65.2682 43.6835 65.081C43.6719 65.0635 43.6604 65.0518 43.643 65.0342C42.6772 63.958 42.226 62.8877 41.879 61.5015C41.7634 61.0453 41.7402 60.5891 41.7981 60.1621C41.5667 60.0334 41.3296 59.9106 41.0982 59.7819C39.3458 58.8227 37.5182 57.998 35.8352 56.9393C33.1227 55.2314 33.1169 52.6813 35.7137 50.7804C38.2064 48.9555 41.2949 49.4468 42.226 51.8332C42.2318 51.8449 42.2318 51.8508 42.2376 51.8625H55.1177C55.3722 46.0135 52.6134 41.9368 46.9744 40.0242C43.6257 38.8895 40.2134 38.7609 36.8184 39.5914C29.346 41.428 23.6838 45.4579 21.434 53.2837C19.9708 58.3899 21.515 62.9169 25.737 66.0461C27.0615 67.0287 28.5941 67.7481 30.0631 68.5085C32.3245 69.6841 34.6842 70.6785 36.8878 71.9535C39.3227 73.3631 39.6581 75.2231 38.1486 77.5509C36.8589 79.5337 34.5628 80.5514 32.4228 80.0835C30.3812 79.6332 29.3865 78.5745 29.2477 75.5974C29.1609 73.6848 28.4206 73.3456 26.8359 73.3865C24.1754 73.4567 21.515 73.4567 18.8545 73.3865C17.4896 73.3514 16.7666 73.9129 16.5816 75.2348C15.714 81.3235 17.3739 88.2194 25.2396 90.0033C28.2124 90.676 31.3934 90.7812 34.4529 90.635C35.0775 90.6058 35.6906 90.5473 36.2921 90.4537C36.3557 90.0092 36.4714 89.6114 36.6854 89.2254C36.7258 89.1026 36.7779 88.9856 36.8357 88.8686C36.9861 88.6464 37.1365 88.4241 37.2869 88.2019C37.7495 87.6228 38.4551 87.307 39.1723 87.1958C39.8606 86.4706 40.8843 86.1723 41.8675 86.3068C41.96 86.2483 42.0525 86.1898 42.1451 86.1313C42.3128 86.0202 42.469 85.8974 42.6309 85.7804C42.6656 85.757 42.7003 85.7278 42.7292 85.7044C43.3481 85.1195 43.8975 84.4702 44.4007 83.7801C44.4354 83.7333 44.632 83.4291 44.6552 83.4116C44.7361 83.2829 44.8229 83.1484 44.8981 83.0197C45.1121 82.6629 45.3203 82.3003 45.5227 81.9376C45.9449 81.1773 46.3382 80.4052 46.7372 79.6332C47.6453 77.8726 48.8251 76.0829 49.2358 74.182C49.5134 72.8894 49.23 71.8599 48.721 70.813C48.0733 70.4094 47.547 69.7777 47.2693 69.0525Z" fill="#F4EDE6"/>
</g>
</g>
<g id="Group_9">
<g id="Group_10">
<path id="Vector_24" d="M51.5839 75.0886C50.2132 83.2303 44.1462 89.3424 36.2169 90.4713C37.1076 85.6868 37.9925 80.9024 38.8716 76.118C38.9873 75.7612 39.0567 75.4103 39.0625 75.0769C39.9763 70.1053 40.8959 65.1337 41.8097 60.1621C43.325 60.9868 44.846 61.8057 46.3151 62.7122C50.9593 65.5665 52.4746 69.7836 51.5839 75.0886Z" fill="#D1271C"/>
</g>
</g>
</g>
</g>
<defs>
<clipPath id="clip0_68_913">
<rect width="89.8193" height="105" fill="white"/>
</clipPath>
</defs>
</svg>
