<?xml version="1.0" encoding="utf-8"?>
<!-- Generator: Adobe Illustrator 25.2.1, SVG Export Plug-In . SVG Version: 6.00 Build 0)  -->
<svg version="1.1" xmlns="http://www.w3.org/2000/svg" xmlns:xlink="http://www.w3.org/1999/xlink" x="0px" y="0px"
	 viewBox="0 0 595.28 841.89" style="enable-background:new 0 0 595.28 841.89;" xml:space="preserve">
<style type="text/css">
	.st0{display:none;}
	.st1{display:inline;fill:#F6E9D9;}
	.st2{fill:#161A1D;}
	.st3{fill:#F4981D;}
	.st4{fill:#D1271C;}
	.st5{fill:#FFFFFF;}
	.st6{fill:#60190D;}
</style>
<g id="Warstwa_1" class="st0">
</g>
<g id="Warstwa_7" class="st0">
	<rect class="st1" width="595.28" height="841.89"/>
</g>
<g id="Warstwa_2">
	<path class="st2" d="M179.65,634.2c-8.3,0-8.26,0.01-6.67-8.06c1.51-7.66,2.93-15.34,4.38-23.01c0.09-0.49,0.15-0.99,0.19-1.48
		c0.47-5.02-0.64-7.61-3.79-8.85c-3.49-1.37-8.59-0.27-10.84,2.96c-1.56,2.24-2.75,4.97-3.31,7.65c-1.88,8.94-3.42,17.95-5.08,26.94
		c-0.69,3.75-0.69,3.78-4.38,3.84c-3.16,0.05-6.33,0.07-9.49-0.01c-3.12-0.07-3.4-0.4-2.82-3.56c1.41-7.68,2.91-15.34,4.36-23.01
		c0.43-2.29,0.93-4.57,1.16-6.89c0.63-6.28-3.62-9.75-9.71-8.06c-4.3,1.2-6.77,4.3-7.77,8.36c-1.35,5.48-2.25,11.07-3.3,16.62
		c-0.77,4.08-1.45,8.18-2.22,12.26c-0.8,4.25-0.83,4.26-5.01,4.29c-3,0.02-6-0.12-8.99,0.04c-2.52,0.13-3.25-0.85-2.8-3.24
		c1.14-6.04,2.14-12.11,3.26-18.15c1.89-10.13,3.83-20.24,5.75-30.36c0.73-3.86,0.73-3.88,4.78-3.94c2.33-0.03,4.66-0.01,6.99-0.01
		c2.32,0,4.86-0.53,3.92,3.5c-0.37,1.59,1.06,0.6,1.51,0.18c3.29-3.06,7.18-4.72,11.59-5.31c6.84-0.9,12.66,0.69,16.15,7.11
		c1.35,2.49,2.08,1.53,3.44,0.18c5.91-5.86,12.88-8.67,21.29-7.07c8.82,1.67,14.02,8.38,12.76,17.22
		c-1.39,9.7-3.23,19.33-4.91,28.99c-0.45,2.62-1.19,5.2-1.45,7.84c-0.23,2.36-1.28,3.18-3.53,3.04
		C183.32,634.11,181.48,634.2,179.65,634.2z"/>
	<path class="st3" d="M399.88,634.2c-0.67,0-1.33,0-2,0c-7.4,0-7.33,0.01-5.93-7.44c3.91-20.73,7.77-41.47,11.63-62.21
		c0.79-4.23,0.75-4.28,4.94-4.28c8.16-0.01,16.32-0.06,24.48,0.09c2.97,0.05,5.98,0.42,8.9,1.01c7.89,1.6,13.04,7.59,13.72,15.66
		c1.58,18.77-11.33,33.04-30.88,34.09c-2.66,0.14-5.34,0.21-7.99,0.04c-2.35-0.15-3.14,0.82-3.49,3.05
		c-0.78,5.09-1.86,10.13-2.79,15.19c-0.88,4.77-0.87,4.77-5.6,4.8C403.21,634.21,401.54,634.2,399.88,634.2z M423.06,594.34
		c1.5,0,3.01,0.12,4.49-0.02c5.24-0.48,8.49-3.42,9.65-8.58c1.01-4.52-0.82-7.66-5.34-8.45c-2.93-0.51-5.96-0.45-8.94-0.65
		c-2.33-0.16-3.17,1.04-3.42,3.26c-0.31,2.8-0.94,5.57-1.49,8.34C416.77,594.48,416.75,594.47,423.06,594.34z"/>
	<path class="st2" d="M94.08,581.5c-1.33,0-2.67,0.04-4-0.01c-1.49-0.05-3.22,0.25-4.39-0.41c-0.82-0.46-0.8-2.31-1.26-3.5
		c-1.4-3.55-6.03-4.27-9.78-1.56c-3.9,2.82-3.89,6.61,0.19,9.15c2.53,1.57,5.28,2.8,7.91,4.22c2.63,1.42,5.28,2.81,7.84,4.36
		c6.97,4.23,9.25,10.5,7.91,18.38c-2.21,12.97-12.54,22.48-25.72,23.1c-4.6,0.22-9.38,0.07-13.84-0.94
		c-11.82-2.65-14.31-12.89-13-21.94c0.28-1.96,1.37-2.8,3.42-2.74c3.99,0.11,8,0.1,11.99,0c2.38-0.06,3.49,0.45,3.62,3.28
		c0.21,4.42,1.7,6,4.77,6.66c3.21,0.7,6.66-0.82,8.6-3.76c2.27-3.45,1.77-6.22-1.89-8.31c-3.31-1.89-6.85-3.37-10.26-5.12
		c-2.21-1.13-4.51-2.2-6.5-3.66c-6.35-4.65-8.67-11.38-6.47-18.96c3.37-11.63,11.89-17.61,23.11-20.34
		c5.1-1.24,10.22-1.05,15.26,0.64c8.69,2.91,12.84,9.2,12.21,18.25c-0.15,2.22-0.75,3.41-3.21,3.23
		C98.42,581.37,96.25,581.49,94.08,581.5C94.08,581.49,94.08,581.49,94.08,581.5z"/>
	<path class="st3" d="M503.22,634.2c-1.66,0-3.33-0.06-4.99,0.01c-1.76,0.07-2.86-0.29-2.64-2.46c0.27-2.68-0.86-1.68-2.1-0.74
		c-6.86,5.16-14.53,6.37-22.68,4.1c-8.8-2.44-13.85-8.68-14.97-17.46c-2.8-21.9,12.97-38.74,29.68-40.68
		c6.62-0.77,12.61,0,17.34,5.2c1.43,1.58,1.76,0.67,1.97-0.74c0.33-2.18,1.52-3.05,3.78-2.93c3.32,0.17,6.66-0.02,9.98,0.06
		c3.02,0.07,3.36,0.49,2.8,3.65c-1.01,5.72-2.11,11.43-3.19,17.14c-1.85,9.79-3.74,19.57-5.55,29.36c-1.01,5.46-0.96,5.47-6.44,5.48
		C505.22,634.2,504.22,634.2,503.22,634.2z M483.93,620.51c8.88-0.05,16.53-7.65,16.67-16.57c0.11-6.97-4.43-11.65-11.39-11.72
		c-8.17-0.08-15.56,6.29-16.65,14.34C471.42,615.04,475.91,620.55,483.93,620.51z"/>
	<path class="st2" d="M363.55,612.21c-5.83,0-11.67-0.05-17.5,0.02c-2.68,0.04-3.21,0.84-2.44,3.35c0.9,2.94,3.02,4.71,5.81,5.74
		c4.78,1.77,9.33,1.09,13.15-2.13c2.27-1.92,4.57-2.41,7.32-2.31c3.16,0.12,6.33,0.03,9.5,0.06c1.42,0.02,2.34,0.37,1.27,2.03
		c-7.57,11.77-22.47,19.67-35.35,16.4c-11.34-2.88-19.03-12.98-18.21-24.75c1.23-17.66,16.02-32.64,33.58-34.02
		c15.75-1.24,28,12.06,25.49,27.68c-1.27,7.9-1.27,7.9-9.11,7.9C372.55,612.2,368.05,612.2,363.55,612.21
		C363.55,612.21,363.55,612.21,363.55,612.21z M357.91,599.43c0,0,0,0.01,0,0.01c2.82,0,5.65,0.06,8.47-0.03
		c1.27-0.04,2.54-0.38,3.8-0.58c-0.49-1.37-0.91-2.77-1.5-4.09c-0.26-0.57-0.82-1.03-1.31-1.47c-5.57-4.96-17.69-2.37-20.76,4.44
		c-0.65,1.43,0.17,1.72,1.34,1.72C351.27,599.44,354.59,599.43,357.91,599.43z"/>
	<path class="st2" d="M308.85,634.34c-2.98-0.14-6.63,0.71-8.76-0.71c-2.11-1.41-2.77-5.07-3.94-7.8
		c-2.16-5.03-4.22-10.11-6.34-15.16c-0.19-0.44-0.53-0.82-0.8-1.23c-0.4,0.49-1.04,0.93-1.15,1.47c-1.15,6.03-2.22,12.09-3.31,18.13
		c-0.15,0.82-0.31,1.63-0.44,2.45c-0.3,1.89-1.19,2.85-3.31,2.75c-3.49-0.16-6.99-0.17-10.48,0c-2.73,0.13-3.06-1.24-2.67-3.39
		c1.07-5.88,2.12-11.77,3.2-17.65c2.96-16,5.93-32,8.9-48c0.18-0.98,0.6-1.93,0.67-2.91c0.14-1.83,1.28-2.05,2.76-2.04
		c3.83,0.03,7.66,0.08,11.48-0.02c2.12-0.06,2.44,0.78,2.08,2.7c-1.61,8.48-3.08,16.99-4.62,25.49c-0.44,2.45-0.98,4.88-1.42,7.33
		c-0.08,0.45,0.09,0.96,0.15,1.44c0.52-0.24,1.17-0.35,1.54-0.73c4.65-4.77,9.37-9.47,13.82-14.41c2.29-2.54,4.71-3.82,8.21-3.57
		c3.81,0.28,7.65,0.05,11.48,0.08c0.63,0,1.27,0.18,1.9,0.27c-0.34,0.69-0.53,1.54-1.05,2.05c-6.43,6.28-12.91,12.51-19.37,18.75
		c-3.99,3.85-3.69,3.05-1.45,7.96c3.58,7.86,7.32,15.64,10.9,23.5c1.31,2.86,1.17,2.98-1.99,3.09c-2,0.07-3.99,0.01-5.99,0.01
		C308.85,634.25,308.85,634.29,308.85,634.34z"/>
	<path class="st2" d="M226.77,635.48c-12.24-0.05-20.51-5.66-23.64-16.09c-1.47-4.9-1.5-9.92-0.26-14.81
		c4.63-18.19,22.05-31.25,42.08-27.18c9.75,1.98,16.7,10.33,17.69,20.36C264.42,615.87,248.13,636.2,226.77,635.48z M245.86,603.77
		c0.12-7.49-4.81-12.16-12.32-11.5c-8.91,0.78-15.36,9.88-14.74,17.77c0.52,6.5,6.15,10.9,12.42,10.11
		C239.29,619.13,245.73,611.92,245.86,603.77z"/>
	<path class="st3" d="M553.93,560.21c1,0,2,0,2.99,0c5.36,0.01,5.34,0.01,4.39,5.08c-3.97,21.37-7.92,42.75-11.88,64.12
		c-0.87,4.71-0.86,4.72-5.63,4.74c-2.99,0.01-5.99-0.07-8.98,0.01c-2.03,0.05-2.65-0.84-2.3-2.74c0.86-4.73,1.64-9.48,2.52-14.22
		c3.17-17.13,6.4-34.25,9.55-51.39c1.03-5.58,0.94-5.6,6.35-5.61C551.93,560.21,552.93,560.21,553.93,560.21z"/>
</g>
<g id="Warstwa_5">
	<g>
		<path class="st4" d="M346.33,297.79c-0.19-0.16-0.37-0.32-0.55-0.48c0.15-0.5,0.29-1.02,0.43-1.54
			C346.27,296.44,346.31,297.11,346.33,297.79z"/>
		<path class="st4" d="M447.72,312c-0.13,8.27-1.06,14.23-3.66,17.86c-8.58-10.44-20.44-17.98-34.68-21.59
			c0.79-7.13,0.77-16.5-2.06-26.96c-4.68-17.26-14.5-28.13-19.12-32.67c17.21,20.41,12.6,46.78-0.84,56.1
			c-3.66-0.33-7.28-0.53-10.84-0.6c-4.86-0.09-9.85-0.16-15.18-0.21c0.56-15.61-2.95-29.22-10.48-40.5
			c-8.04-12.07-20.31-20.93-36.46-26.33c-7.24-2.43-14.62-3.99-22.05-4.68c0.06-5.18-0.36-13.04-3.14-21.98
			c-5.48-17.65-14.86-22.42-21.49-37.16c-8.11-18.05-5.22-35.74-4.32-41.28c4.81-29.43,26.35-46.96,32.9-51.9
			c-1.71,5.23-9.94,32.22,4.5,60.95c13.6,27.09,37.9,36.93,43.47,39.03c1.92-4.64,4.39-9.71,7.6-14.98
			c7.59-12.46,16.45-21.33,23.62-27.31c-1.72,5.68-3.73,15.06-2.17,26.28c0.91,6.51,2.89,12.75,6.11,19.18
			c12.17,24.35,32.89,33.18,49.85,57.78C448.42,268.8,447.99,295.25,447.72,312z"/>
		<path class="st4" d="M216.18,368.58c-0.71-0.47-1.41-0.96-2.1-1.46c-19.02-13.91-25.96-34.08-19.37-56.79
			c1.55-5.34,3.46-10.29,5.72-14.86C199.64,314.46,203.02,338.68,216.18,368.58z"/>
		<path class="st4" d="M176.79,415.79c-4.4,12.58,3.09,23.82,3.96,25.07c-2.71-2.46-5.28-4.93-7.71-7.39
			c-1.48-8.31-1.36-17.06-0.14-25.46c0.82-5.7,3.89-8.22,9.66-8.22h0.57c2.95,0.08,5.89,0.14,8.84,0.18
			C184.85,403.07,179.26,408.72,176.79,415.79z"/>
		<path class="st4" d="M158.05,405.87c-0.4,2.74-0.73,5.77-0.91,9.01c-67.92-93.57,40.65-187.68,65.99-282.56
			c3.43,17.47,6.57,44.26,0.91,75.52c-4.55,25.16-12.06,38.06-17.48,54.39c-12.36,11.64-21.14,26.31-26.25,43.92
			c-8.35,28.75,0.73,55.38,24.91,73.08c2.93,2.14,5.92,3.99,8.92,5.68c-4.43,0.08-8.85,0.12-13.18,0.12
			c-5.85,0-11.71-0.07-17.42-0.23c-0.33-0.01-0.66-0.01-0.98-0.01C169.32,384.79,159.93,392.86,158.05,405.87z"/>
		<path class="st4" d="M423.77,437.39c-16.38,19.63-41.61,32.16-72.3,33.81c-2.85,0.15-5.71,0.27-8.57,0.34
			C375.71,464.55,403.56,452.53,423.77,437.39z"/>
		<path class="st4" d="M489.75,362.18c-5.16,30.37-23.2,58.17-49.65,78.57c14.46-20.41,21.11-45.91,18.83-72.93
			c-0.52-6.18-1.74-12.04-3.59-17.51c3.72-10.44,7.71-25.82,7.53-44.6c-0.28-28.94-10.32-50.65-16.23-61.39
			C452.35,250.04,500.38,299.63,489.75,362.18z"/>
		<path class="st4" d="M242.81,491.79h0.14c-1.47,7.84-2.94,15.68-4.42,23.51l-0.13,0.66c-1.12,5.97-1.94,10.29-2.23,14.15
			c-0.13,1.65-0.41,5.42,0.74,9.6c-11.69-1.14-23.27-3.5-32.08-5.91c-16.62-4.56-62.54-17.21-88.89-61.2
			c-26.56-44.33-22.91-103.22,8.74-150.52c-0.87,3.28-16.95,68.55,30.51,117.33c1.62,1.66,3.28,3.28,4.98,4.82
			c1.01,3.46,2.31,6.92,3.95,10.33c8.42,17.47,23.79,29.16,44.45,33.8C218.85,490.67,230.05,491.79,242.81,491.79z"/>
		<path class="st4" d="M285.48,528c-4.27,7.57-14.26,11.06-26.26,12.1h-0.02c-10.06-0.87-9.19-4.76-5.93-22.02
			c1.69-8.95,3.37-17.91,5.05-26.86c0.49-2.56,0.97-5.13,1.44-7.69c0.49-2.58,0.98-5.17,1.46-7.75c-2.55,0.37-5.14,0.62-7.77,0.74
			c-0.04,0.01-0.09,0.01-0.13,0.01c-2.5,0.12-5.02,0.2-7.55,0.23c-0.99,0.02-1.97,0.03-2.96,0.03c-10.43,0-20.95-0.82-30.96-3.07
			c-7.74-1.73-14.14-4.56-19.38-8.19c16.67,7.53,34.92,11.28,53.37,10.89c2.56-0.05,5.14-0.19,7.71-0.4c2.6-0.22,5.2-0.52,7.8-0.91
			c4.74-0.7,9.47-1.68,14.16-2.95c0.05,0.08,0.1,0.17,0.16,0.25c1.17,1.88,2.46,4.11,3.74,6.68c1.03,2.08,2.06,4.38,3.01,6.9
			c0.99,2.59,1.91,5.42,2.67,8.46C286.84,501.36,291.06,518.12,285.48,528z"/>
		<path class="st4" d="M302.13,476.25c3.77,1.22,8.85,2.69,15,4.03c-0.01,0.06-0.02,0.12-0.03,0.18
			c-2.35,15.24-5.56,30.34-8.36,45.51c-1.19,6.46-1.83,10-3.5,11.95c-6.41-1.93-11.46-5.1-14.18-9.92
			c-3.72-6.58-1.94-17.38,0.39-33.55c0.74-5.12,1.65-9.65,2.54-13.47c0.64-2.71,1.26-5.05,1.81-6.98
			C297.01,474.47,299.16,475.28,302.13,476.25z"/>
		<path class="st4" d="M502.44,364.56c-1.59,20.23-8.09,65.69-41.83,108.04c-8.64,10.83-38.1,47.28-88.9,61.2
			c-13.63,3.73-33.88,7.33-50.95,6.52c1.21-3.42,1.93-7.26,2.71-11.54l0.02-0.09c0.89-4.84,1.85-9.78,2.78-14.56
			c1.74-9,3.53-18.28,5.05-27.6c1.95,0.06,3.96,0.09,6.06,0.09c4.43,0,9.15-0.14,14.88-0.44c9.74-0.52,19.12-2.05,28-4.51h0.01
			c0.01,0,0.02-0.01,0.03-0.01c13.6-2.44,28-6.95,42.58-14.5C485.01,434.98,500.4,373.4,502.44,364.56z"/>
		<path class="st4" d="M259.6,235.03c-13.45,3.33-25.33,8.06-35.61,14.16c3.06-6.47,9.61-16.39,13.85-30.79
			c5.15-17.47,4.48-33.35,2.88-44.64C257.42,195.77,264.08,218.79,259.6,235.03z"/>
		<path class="st4" d="M320.42,150.15c-13.67-14.44-16.31-31.13-16.94-36.4c-2.43-20.52,5.82-35.81,8.64-40.56
			c-2.18,8.26-4.52,21.66-1.92,37.68c4.62,28.49,21.78,46.38,28.32,52.56C333.9,161.17,327,157.11,320.42,150.15z"/>
		<path class="st4" d="M282.82,232.02c-5.29,0.04-10.63,0.53-15.95,1.46c0.76-2.13,1.46-4.43,2.05-6.91
			c2.3-9.62,2.12-18.22,1.32-24.73C272.72,205.73,283.8,223.4,282.82,232.02z"/>
	</g>
</g>
<g id="Warstwa_6">
	<g>
		<path class="st3" d="M334.16,311.32c-6.88,0-13.75,0.01-20.63,0.03l-10.62,0.02c-5.15,0.01-9.06,0.01-12.32,1.24
			c0.37,0.77,0.82,1.37,1.43,1.72c1.92,1.09,4.35,1.31,6.89,1.31c1.69,0,3.42-0.1,5.09-0.1c0.39,0,0.78,0.01,1.16,0.02
			c1.54,0.05,3.09,0.07,4.64,0.07c2.44,0,4.89-0.04,7.33-0.04v-0.03c3.97,0,7.96-0.14,11.93-0.14c2.51,0,5.02,0.06,7.52,0.24
			c0.49,0.03,0.95,0.05,1.39,0.05c4.12,0,6.2-1.54,7.26-4.38C341.72,311.32,338.05,311.32,334.16,311.32z M443.98,369.08
			c-2.04-24.18-17.44-42.11-41.08-46.91c-8.74-1.77-17.75-2.86-26.66-3.03c-5.98-0.11-11.97-0.19-17.96-0.23
			c-2.99-0.03-5.98-0.05-8.98-0.06c-5.04-0.02-10.09-0.03-15.14-0.03c-10.42,0-20.83,0.03-31.24,0.05
			c-7.7,0.01-10.64,0.07-12.29,3.04c-1.06,1.87-1.61,4.9-2.52,9.8c-0.09,0.5-0.18,0.99-0.28,1.49c-0.48,2.58-0.96,5.16-1.44,7.74
			c-1.07-0.57-2.14-1.14-3.21-1.72c-1.24-0.67-2.48-1.32-3.73-1.96l-10.99,59.02c3.87,3.22,5.69,6.9,5.57,11.02v0.01
			c-0.29,1.53-0.57,3.07-0.86,4.6v0.01c-0.68,2.04-1.76,4.18-3.22,6.41c-1.89,2.88-4.27,5.3-6.95,7.19
			c-3.04,16.3-6.09,32.59-9.15,48.88c-0.1,0.54-0.2,1.08-0.3,1.62c-0.03,0.17-0.07,0.33-0.1,0.5c2.63-0.12,5.22-0.37,7.77-0.74
			c-0.48,2.58-0.97,5.17-1.46,7.75c-0.47,2.56-0.95,5.13-1.44,7.69c-1.68,8.95-3.36,17.91-5.05,26.86
			c-3.26,17.26-4.13,21.15,5.93,22.02h0.02c2.89,0.25,6.68,0.25,11.57,0.25h6.22c2.85,0,5.7,0.01,8.56,0.01
			c2.13,0,4.27-0.01,6.41-0.02c7.75-0.04,11.25-0.07,13.26-2.42c1.67-1.95,2.31-5.49,3.5-11.95c2.8-15.17,6.01-30.27,8.36-45.51
			c0.01-0.06,0.02-0.12,0.03-0.18c0.96-6.1,3.11-8.99,9.08-8.99c0.43,0,0.87,0.01,1.33,0.04c3.27,0.21,6.55,0.29,9.84,0.29
			c1.84,0,3.68-0.03,5.52-0.08c2.86-0.07,5.72-0.19,8.57-0.34c30.69-1.65,55.92-14.18,72.3-33.81l0.01-0.01
			C438.66,419.54,446.24,395.84,443.98,369.08z M342.63,421.01c-0.88,0.01-1.7,0.02-2.47,0.02c-2.12,0-3.87-0.06-5.3-0.24
			c-6.99-0.87-6.22-4.58-3.52-18.12c1.65-8.29,3.54-16.58,4.47-24.97c0.06-0.56,0.14-1.1,0.23-1.61c0.66-3.84,2.12-6.45,5.04-7.57
			c1.06-0.41,2.32-0.62,3.8-0.62c0.38,0,0.77,0.01,1.18,0.04c8.94,0.6,18.01,0.42,26.79,1.94c13.51,2.35,19.02,11.78,15.98,25.31
			c-3.47,15.46-13.23,24.26-28.92,25.69c-1.64,0.15-3.3,0.2-4.96,0.2c-2.83,0-5.67-0.14-8.49-0.14
			C345.08,420.97,343.81,420.99,342.63,421.01z"/>
		<path class="st5" d="M269.95,418.33c-1.89,2.88-4.27,5.3-6.95,7.19c-3.04,16.3-6.09,32.59-9.15,48.88c-0.1,0.54-0.2,1.08-0.3,1.62
			c-0.03,0.17-0.07,0.33-0.1,0.5c2.63-0.12,5.22-0.37,7.77-0.74c0.04-0.22,0.08-0.45,0.13-0.67c3.95-21.06,7.89-42.12,11.82-63.19
			C272.49,413.96,271.41,416.1,269.95,418.33z M269.95,418.33c-1.89,2.88-4.27,5.3-6.95,7.19c-3.04,16.3-6.09,32.59-9.15,48.88
			c-0.1,0.54-0.2,1.08-0.3,1.62c-0.03,0.17-0.07,0.33-0.1,0.5c2.63-0.12,5.22-0.37,7.77-0.74c0.04-0.22,0.08-0.45,0.13-0.67
			c3.95-21.06,7.89-42.12,11.82-63.19C272.49,413.96,271.41,416.1,269.95,418.33z M269.95,418.33c-1.89,2.88-4.27,5.3-6.95,7.19
			c-3.04,16.3-6.09,32.59-9.15,48.88c-0.1,0.54-0.2,1.08-0.3,1.62c-0.03,0.17-0.07,0.33-0.1,0.5c2.63-0.12,5.22-0.37,7.77-0.74
			c0.04-0.22,0.08-0.45,0.13-0.67c3.95-21.06,7.89-42.12,11.82-63.19C272.49,413.96,271.41,416.1,269.95,418.33z M269.95,418.33
			c-1.89,2.88-4.27,5.3-6.95,7.19c-3.04,16.3-6.09,32.59-9.15,48.88c-0.1,0.54-0.2,1.08-0.3,1.62c-0.03,0.17-0.07,0.33-0.1,0.5
			c2.63-0.12,5.22-0.37,7.77-0.74c0.04-0.22,0.08-0.45,0.13-0.67c3.95-21.06,7.89-42.12,11.82-63.19
			C272.49,413.96,271.41,416.1,269.95,418.33z M269.95,418.33c-1.89,2.88-4.27,5.3-6.95,7.19c-3.04,16.3-6.09,32.59-9.15,48.88
			c-0.1,0.54-0.2,1.08-0.3,1.62c-0.03,0.17-0.07,0.33-0.1,0.5c2.63-0.12,5.22-0.37,7.77-0.74c0.04-0.22,0.08-0.45,0.13-0.67
			c3.95-21.06,7.89-42.12,11.82-63.19C272.49,413.96,271.41,416.1,269.95,418.33z M334.16,303.82c-6.89,0-13.77,0.01-20.66,0.03
			c-3.53,0.01-7.07,0.01-10.61,0.02c-5.16,0.01-9.86,0.01-14.19,1.44c0.68,2.46,0.99,5.38,1.89,7.3c0.37,0.77,0.82,1.37,1.43,1.72
			c1.92,1.09,4.35,1.31,6.89,1.31c1.69,0,3.42-0.1,5.09-0.1c0.39,0,0.78,0.01,1.16,0.02c1.54,0.05,3.09,0.07,4.64,0.07
			c2.44,0,4.89-0.04,7.33-0.04v-0.03c3.97,0,7.96-0.14,11.93-0.14c2.51,0,5.02,0.06,7.52,0.24c0.49,0.03,0.95,0.05,1.39,0.05
			c4.12,0,6.2-1.54,7.26-4.38c0.55-1.45,0.83-3.24,0.98-5.34c0.05-0.72,0.09-1.44,0.12-2.15
			C342.49,303.83,338.45,303.82,334.16,303.82z M283.18,339.22c-1.24-0.67-2.48-1.32-3.73-1.96c-2.32-1.2-4.65-2.37-6.98-3.55
			c-0.28,1.5-0.55,3-0.83,4.5l-10.01,53.74c0.89,0.48,1.77,0.97,2.65,1.47c1.59,0.91,2.98,1.86,4.18,2.86
			c3.87,3.22,5.69,6.9,5.57,11.02l12.36-66.36C285.32,340.37,284.25,339.8,283.18,339.22z M269.95,418.33
			c-1.89,2.88-4.27,5.3-6.95,7.19c-2.56,1.8-5.4,3.11-8.35,3.85c-2.96,15.89-5.62,30.08-8.17,43.64c-0.21,1.14-0.43,2.27-0.64,3.41
			c-0.02,0.11-0.04,0.23-0.07,0.34c2.53-0.03,5.05-0.11,7.55-0.23c0.04,0,0.09,0,0.13-0.01c2.63-0.12,5.22-0.37,7.77-0.74
			c0.04-0.22,0.08-0.45,0.13-0.67c3.95-21.06,7.89-42.12,11.82-63.19C272.49,413.96,271.41,416.1,269.95,418.33z M269.95,418.33
			c-1.89,2.88-4.27,5.3-6.95,7.19c-3.04,16.3-6.09,32.59-9.15,48.88c-0.1,0.54-0.2,1.08-0.3,1.62c-0.03,0.17-0.07,0.33-0.1,0.5
			c2.63-0.12,5.22-0.37,7.77-0.74c0.04-0.22,0.08-0.45,0.13-0.67c3.95-21.06,7.89-42.12,11.82-63.19
			C272.49,413.96,271.41,416.1,269.95,418.33z M269.95,418.33c-1.89,2.88-4.27,5.3-6.95,7.19c-3.04,16.3-6.09,32.59-9.15,48.88
			c-0.1,0.54-0.2,1.08-0.3,1.62c-0.03,0.17-0.07,0.33-0.1,0.5c2.63-0.12,5.22-0.37,7.77-0.74c0.04-0.22,0.08-0.45,0.13-0.67
			c3.95-21.06,7.89-42.12,11.82-63.19C272.49,413.96,271.41,416.1,269.95,418.33z M269.95,418.33c-1.89,2.88-4.27,5.3-6.95,7.19
			c-3.04,16.3-6.09,32.59-9.15,48.88c-0.1,0.54-0.2,1.08-0.3,1.62c-0.03,0.17-0.07,0.33-0.1,0.5c2.63-0.12,5.22-0.37,7.77-0.74
			c0.04-0.22,0.08-0.45,0.13-0.67c3.95-21.06,7.89-42.12,11.82-63.19C272.49,413.96,271.41,416.1,269.95,418.33z M269.95,418.33
			c-1.89,2.88-4.27,5.3-6.95,7.19c-3.04,16.3-6.09,32.59-9.15,48.88c-0.1,0.54-0.2,1.08-0.3,1.62c-0.03,0.17-0.07,0.33-0.1,0.5
			c2.63-0.12,5.22-0.37,7.77-0.74c0.04-0.22,0.08-0.45,0.13-0.67c3.95-21.06,7.89-42.12,11.82-63.19
			C272.49,413.96,271.41,416.1,269.95,418.33z"/>
	</g>
	<g>
		<g>
			<path class="st6" d="M349.3,318.85c-2.62,2.9-6.41,4.36-11.33,4.36c-0.62,0-1.27-0.02-1.93-0.07c-2.04-0.15-4.26-0.22-6.98-0.22
				c-1.47,0-2.95,0.02-4.43,0.05v0.09l-7.5,0.03c-1.2,0-2.4,0.01-3.61,0.02c-1.24,0.01-2.48,0.02-3.72,0.02
				c-1.88,0-3.43-0.03-4.9-0.08c-0.29,0-0.59-0.01-0.9-0.01c-0.76,0-1.54,0.02-2.32,0.05c-0.93,0.02-1.85,0.05-2.77,0.05
				c-2.41,0-5.39-0.16-8.28-1.23c1.65-2.97,4.59-3.03,12.29-3.04c10.41-0.02,20.82-0.05,31.24-0.05
				C339.21,318.82,344.26,318.83,349.3,318.85z"/>
			<path class="st6" d="M346.33,303.84c-0.03,0.71-0.07,1.43-0.12,2.15c-0.15,2.1-0.43,3.89-0.98,5.34
				c-1.06,2.84-3.14,4.38-7.26,4.38c-0.44,0-0.9-0.02-1.39-0.05c-2.5-0.18-5.01-0.24-7.52-0.24c-3.97,0-7.96,0.14-11.93,0.14v0.03
				c-2.44,0-4.89,0.04-7.33,0.04c-1.55,0-3.1-0.02-4.64-0.07c-0.38-0.01-0.77-0.02-1.16-0.02c-1.67,0-3.4,0.1-5.09,0.1
				c-2.54,0-4.97-0.22-6.89-1.31c-0.61-0.35-1.06-0.95-1.43-1.72c-0.9-1.92-1.21-4.84-1.89-7.3c-0.14-0.5-0.29-0.99-0.47-1.45
				c-2.48-6.28-8.33-9.61-15.03-9.61c-4.64,0-9.68,1.6-14.27,4.92c-11.68,8.45-11.65,19.81,0.56,27.4
				c4.18,2.61,8.57,4.89,12.98,7.14c2.33,1.18,4.66,2.35,6.98,3.55c1.25,0.64,2.49,1.29,3.73,1.96c1.07,0.58,2.14,1.15,3.21,1.72
				c0.48-2.58,0.96-5.16,1.44-7.74c1.06,0.58,2.12,1.14,3.19,1.72c6.44,3.46,13.1,7.04,19.54,10.95
				c12.84,7.8,21.35,17.9,25.48,30.22c-0.09,0.51-0.17,1.05-0.23,1.61c-0.93,8.39-2.82,16.68-4.47,24.97
				c-2.7,13.54-3.47,17.25,3.52,18.12c-4.82,15.77-13.55,29.62-25.65,40.57c-8.78,7.94-18.84,13.91-29.8,17.73
				c-6.28,2.2-12.86,3.69-19.65,4.44c0.49-2.58,0.98-5.17,1.46-7.75c-2.55,0.37-5.14,0.62-7.77,0.74c-0.04,0.01-0.09,0.01-0.13,0.01
				c-2.5,0.12-5.02,0.2-7.55,0.23c-0.99,0.02-1.97,0.03-2.96,0.03c-10.43,0-20.95-0.82-30.96-3.07c-7.74-1.73-14.14-4.56-19.38-8.19
				c-11.3-7.83-17.21-19.44-19.43-32.06c-1.48-8.31-1.36-17.06-0.14-25.46c0.82-5.7,3.89-8.22,9.66-8.22h0.57
				c2.95,0.08,5.89,0.14,8.84,0.18c3,0.04,5.99,0.06,8.99,0.06c6.03,0,12.06-0.08,18.09-0.23c0.36-0.01,0.71-0.02,1.05-0.02
				c6.42,0,9.43,1.78,9.81,9.86c0.62,13.23,5.08,17.96,14.28,19.96c1.56,0.34,3.14,0.5,4.72,0.5c1.93,0,3.86-0.25,5.74-0.73
				c2.95-0.74,5.79-2.05,8.35-3.85c2.68-1.89,5.06-4.31,6.95-7.19c1.46-2.23,2.54-4.37,3.22-6.41v-0.01
				c0.29-1.53,0.57-3.07,0.86-4.6v-0.01c0.12-4.12-1.7-7.8-5.57-11.02c-1.2-1-2.59-1.95-4.18-2.86c-0.88-0.5-1.76-0.99-2.65-1.47
				c-9.14-4.99-18.79-9.1-28.07-13.86c-5.87-3.01-11.93-5.86-17.38-9.51c-0.71-0.47-1.41-0.96-2.1-1.46
				c-19.02-13.91-25.96-34.08-19.37-56.79c1.55-5.34,3.46-10.29,5.72-14.86c12.4-25.24,35.05-39.15,63.51-46.07
				c6.55-1.59,13.11-2.39,19.66-2.39c8.73,0,17.43,1.43,26.04,4.31c22.61,7.57,34.97,22.79,36.57,44.44v0.01
				c0.06,0.67,0.1,1.34,0.12,2.02C346.42,299.76,346.42,301.77,346.33,303.84z"/>
			<path class="st5" d="M273.17,411.91c0.53-1.59,0.82-3.12,0.86-4.6C273.74,408.84,273.46,410.38,273.17,411.91z M273.17,411.91
				c0.53-1.59,0.82-3.12,0.86-4.6C273.74,408.84,273.46,410.38,273.17,411.91z M273.17,411.91c0.53-1.59,0.82-3.12,0.86-4.6
				C273.74,408.84,273.46,410.38,273.17,411.91z M273.17,411.91c0.53-1.59,0.82-3.12,0.86-4.6
				C273.74,408.84,273.46,410.38,273.17,411.91z M349.3,318.85c-5.04-0.02-10.09-0.03-15.14-0.03c-10.42,0-20.83,0.03-31.24,0.05
				c-7.7,0.01-10.64,0.07-12.29,3.04c-1.06,1.87-1.61,4.9-2.52,9.8c-0.09,0.5-0.18,0.99-0.28,1.49c-0.48,2.58-0.96,5.16-1.44,7.74
				c6.82,3.67,13.66,7.32,20.27,11.34c20.89,12.68,27.73,31.46,23.71,55.05c-5.31,31.15-26.25,55.64-54.7,65.08
				c-4.63,1.54-9.45,2.68-14.45,3.37c-0.48,2.58-0.97,5.17-1.46,7.75c-0.47,2.56-0.95,5.13-1.44,7.69c8.36-0.74,16.43-2.5,24.1-5.23
				c3.97-1.41,7.83-3.08,11.57-5.01c2.78-1.44,5.5-3.01,8.14-4.73c4.24-2.75,8.29-5.86,12.11-9.32
				c13.62-12.32,23.3-28.04,28.39-45.92c-0.88,0.01-1.7,0.02-2.47,0.02c-2.12,0-3.87-0.06-5.3-0.24c-6.99-0.87-6.22-4.58-3.52-18.12
				c1.65-8.29,3.54-16.58,4.47-24.97c0.06-0.56,0.14-1.1,0.23-1.61c0.66-3.84,2.12-6.45,5.04-7.57
				c-5.19-11.67-14.11-21.47-26.63-29.07c-5.16-3.13-10.4-6.02-15.56-8.81c0,0,0.01,0,0.02,0c1.06,0,2.08-0.03,2.98-0.06
				c0.77-0.02,1.49-0.04,2.11-0.04c0.22,0,0.44,0,0.65,0.01c1.55,0.05,3.18,0.08,5.15,0.08c1.26,0,2.52-0.01,3.79-0.02
				c1.18-0.01,2.36-0.02,3.54-0.02h15v-0.13c1.22,0.03,2.32,0.08,3.37,0.16c0.84,0.06,1.67,0.09,2.47,0.09
				c9.88,0,15.42-4.67,18.33-8.58c0.78-1.05,1.43-2.13,1.98-3.22C355.29,318.88,352.3,318.86,349.3,318.85z M273.17,411.91
				c0.53-1.59,0.82-3.12,0.86-4.6C273.74,408.84,273.46,410.38,273.17,411.91z M273.17,411.91c0.53-1.59,0.82-3.12,0.86-4.6
				C273.74,408.84,273.46,410.38,273.17,411.91z M273.17,411.91c0.53-1.59,0.82-3.12,0.86-4.6
				C273.74,408.84,273.46,410.38,273.17,411.91z"/>
		</g>
	</g>
</g>
<g id="Warstwa_4">
	<g>
		<g>
			<path class="st3" d="M443.98,369.08c-2.04-24.18-17.44-42.11-41.08-46.91c-8.74-1.77-17.75-2.86-26.66-3.03
				c-24.43-0.45-48.88-0.31-73.32-0.27c-12.56,0.02-12.45,0.17-14.81,12.84c-0.57,3.08-1.15,6.15-1.72,9.23
				c-4.12,22.12-8.24,44.24-12.36,66.36c-0.29,1.54-0.57,3.08-0.86,4.62c-3.97,21.29-7.95,42.58-11.95,63.86
				c-2.64,14.1-5.29,28.2-7.95,42.3c-4.21,22.31-4.43,22.27,17.76,22.27h5.98c4.99,0,9.98,0.02,14.97-0.01
				c14.16-0.08,14.13-0.09,16.76-14.37c2.8-15.17,6.01-30.27,8.36-45.51c1.02-6.66,3.39-9.57,10.44-9.13
				c7.94,0.5,15.96,0.29,23.93-0.13C410.05,468.05,448.73,425.29,443.98,369.08z M388.83,395.19
				c-3.47,15.46-13.23,24.26-28.92,25.69c-4.45,0.41-8.97,0.06-13.45,0.06c-18.89,0.39-18.84,0.4-15.12-18.27
				c1.65-8.29,3.54-16.58,4.47-24.97c0.74-6.63,3.26-10.23,10.25-9.76c8.94,0.6,18.01,0.42,26.79,1.94
				C386.36,372.23,391.87,381.66,388.83,395.19z"/>
		</g>
	</g>
</g>
<g id="Warstwa_3">
	<g>
		<g>
			<path class="st2" d="M309.64,251.32c-15.07-5.05-30.42-5.63-45.7-1.91c-33.62,8.17-59.12,26.09-69.22,60.93
				c-6.59,22.71,0.35,42.88,19.37,56.79c5.97,4.37,12.84,7.57,19.48,10.97c10.19,5.22,20.8,9.66,30.72,15.33
				c10.96,6.27,12.46,14.56,5.67,24.91c-5.79,8.83-16.15,13.36-25.76,11.27c-9.2-2-13.67-6.73-14.29-19.96
				c-0.4-8.5-3.72-10.02-10.86-9.84c-11.97,0.31-23.95,0.32-35.92,0c-6.14-0.17-9.38,2.33-10.23,8.21
				c-3.91,27.1,3.55,57.77,38.96,65.71c13.38,3,27.69,3.46,41.47,2.81c2.8-0.13,5.56-0.4,8.27-0.8c0.28-1.97,0.81-3.76,1.76-5.46
				c0.19-0.54,0.41-1.06,0.67-1.59c0.67-0.99,1.34-1.99,2.02-2.98c2.09-2.58,5.26-3.97,8.47-4.49c3.09-3.22,7.7-4.56,12.12-3.96
				c0.42-0.25,0.84-0.51,1.26-0.78c0.75-0.49,1.46-1.04,2.2-1.56c0.16-0.12,0.31-0.23,0.44-0.33c2.78-2.6,5.27-5.5,7.51-8.57
				c0.16-0.22,1.05-1.55,1.13-1.65c0.37-0.58,0.74-1.16,1.11-1.75c0.98-1.59,1.91-3.2,2.82-4.82c1.9-3.38,3.68-6.82,5.47-10.25
				c4.09-7.84,9.39-15.79,11.24-24.26c1.25-5.75-0.03-10.33-2.31-14.99c-2.94-1.77-5.31-4.58-6.55-7.82
				c-0.07-0.19-0.13-0.34-0.17-0.47c-0.1-0.09-0.21-0.21-0.35-0.37c-0.15-0.17-0.32-0.35-0.49-0.54c-7-0.08-13.76-5.96-13.78-13.2
				c0-0.11,0-0.2,0.01-0.28c-0.02-0.05-0.05-0.09-0.07-0.15c-0.08-0.17-0.44-1.03-0.68-1.62c-0.01-0.02-0.02-0.03-0.03-0.05
				c-0.02,0.09-0.23-0.16-0.55-0.99c-0.05-0.07-0.11-0.14-0.18-0.21c-4.35-4.79-6.37-9.56-7.95-15.73
				c-0.52-2.04-0.63-4.05-0.38-5.96c-1.05-0.57-2.1-1.13-3.16-1.7c-7.88-4.26-16.11-7.93-23.7-12.65
				c-12.21-7.59-12.24-18.96-0.56-27.4c11.23-8.12,25.11-5.94,29.3,4.69c1.4,3.55,1.34,9.08,3.78,10.47
				c3.49,1.98,8.67,1.08,13.14,1.23c3.99,0.13,7.98,0.03,11.97,0.03v-0.03c6.49,0,13-0.37,19.45,0.1c7.38,0.53,9.16-3.01,9.63-9.67
				C348.09,278.86,335.66,260.03,309.64,251.32z"/>
		</g>
	</g>
	<g>
		<g>
			<path class="st4" d="M330.37,407.33c-6.17,36.22-33.48,63.44-69.15,68.45c4-21.28,7.98-42.57,11.95-63.86
				c0.53-1.6,0.82-3.14,0.86-4.62c4.12-22.12,8.24-44.24,12.36-66.36c6.82,3.67,13.66,7.32,20.28,11.34
				C327.55,364.96,334.39,383.74,330.37,407.33z"/>
		</g>
	</g>
</g>
</svg>
