<svg xmlns="http://www.w3.org/2000/svg" width="40" height="43" viewBox="0 0 40 43">
<g clip-path="url(#clip0_66_894)">
<path d="M20.0251 0.0744103C20.5839 0.0744103 21.142 0.0794361 21.7008 0.0735727C23.7109 0.0526319 25.3514 1.64162 25.3464 3.6846C25.3439 4.72913 25.3506 5.77952 25.4495 6.81734C25.5701 8.09389 26.9132 9.35118 28.1717 9.61252C29.4528 9.87889 30.4834 9.37631 31.5081 8.74474C32.0879 8.38707 32.6635 8.01265 33.276 7.71947C34.7105 7.03345 36.4457 7.44724 37.3774 8.77405C38.1181 9.82947 38.7222 10.9804 39.395 12.0844C39.7033 12.5895 39.9463 13.1071 39.9891 13.7136C40.0846 15.0781 39.5508 16.1385 38.4373 16.8907C37.7352 17.3648 36.9819 17.7635 36.2513 18.1949C35.0255 18.9186 34.3569 19.9849 34.3535 21.4148C34.3502 22.8613 35.018 23.9402 36.2681 24.6648C36.9174 25.0417 37.5743 25.4086 38.2077 25.8106C39.4763 26.6164 40.1164 28.2565 39.8592 29.7416C39.6966 30.6815 39.2023 31.4454 38.7532 32.2411C38.4046 32.8585 38.0301 33.4616 37.664 34.0689C36.6459 35.7592 34.5119 36.2668 32.816 35.2474C31.9589 34.7323 31.0992 34.2087 30.196 33.7849C28.5529 33.0134 26.2756 33.9809 25.6564 35.7022C25.4671 36.2283 25.3933 36.8087 25.3531 37.3708C25.2911 38.2319 25.3623 39.1047 25.2718 39.9616C25.1269 41.3395 24.0904 42.4636 22.7339 42.7961C22.3351 42.8941 21.917 42.9461 21.5064 42.9544C20.4457 42.9762 19.3841 42.9553 18.3225 42.9628C16.2371 42.9787 14.6359 41.337 14.6535 39.3309C14.6627 38.3006 14.6568 37.2636 14.5538 36.24C14.4189 34.9048 13.0883 33.6752 11.7679 33.4138C10.6342 33.1893 9.69496 33.5906 8.75068 34.1015C8.09044 34.4592 7.42601 34.8118 6.74565 35.1293C5.26765 35.8203 3.52655 35.3932 2.58646 34.0404C1.93711 33.1064 1.40254 32.092 0.814359 31.1154C0.463291 30.5324 0.0937891 29.9661 0.0217321 29.2541C-0.121544 27.836 0.421397 26.7413 1.57263 25.9589C2.28399 25.4756 3.04729 25.066 3.79551 24.6388C5.01461 23.9419 5.65558 22.9015 5.64804 21.4968C5.6405 20.1097 5.00288 19.0811 3.79551 18.3984C3.15453 18.0357 2.52362 17.6546 1.886 17.2852C0.216118 16.3136 -0.468423 13.9531 0.614945 12.0752C1.1981 11.0633 1.76786 10.0422 2.39291 9.05633C3.41595 7.44222 5.40422 6.9966 7.13443 7.92553C8.01419 8.39796 8.90736 8.84944 9.81562 9.26323C11.4503 10.0096 13.7553 9.02785 14.3502 7.31657C14.5337 6.78719 14.6091 6.20755 14.6485 5.64466C14.7071 4.81122 14.6334 3.96605 14.7163 3.13595C14.8571 1.72873 15.865 0.544322 17.2492 0.253663C18.1508 0.0643587 19.095 0.0769232 20.0209 -0.000976562C20.0217 0.02499 20.0234 0.0492813 20.0251 0.0744103ZM27.1403 21.5496C27.2149 17.5968 23.8642 14.439 20.1591 14.3669C16.0804 14.2882 12.8948 17.6923 12.8462 21.4022C12.7934 25.4295 16.165 28.6385 19.9262 28.6712C23.8944 28.7047 27.1981 25.3675 27.1403 21.5496Z"/>
</g>
<defs>
<clipPath id="clip0_66_894">
<rect width="40" height="42.963"/>
</clipPath>
</defs>
</svg>