<svg width="93" height="93" viewBox="0 0 93 93" fill="none" xmlns="http://www.w3.org/2000/svg">
<g id="Frame" clip-path="url(#clip0_68_991)">
<g id="Group">
<path id="Vector" d="M46.5935 -5.92285e-05C72.2215 0.0417189 93.0526 20.9671 92.9999 46.6171C92.9473 72.2435 72.0108 93.0617 46.3555 92.9981C20.7348 92.9364 -0.0727064 71.991 -5.44631e-05 46.3319C0.0725975 20.7528 20.9837 -0.0418374 46.5935 -5.92285e-05ZM85.762 46.4663C85.7148 24.7362 68.1003 7.17307 46.4209 7.24028C24.7289 7.30749 7.19794 24.8906 7.24335 46.5335C7.28876 68.2527 24.9323 85.8486 46.5808 85.7651C68.2746 85.6815 85.8074 68.0947 85.762 46.4663Z" fill="#F4EDE6"/>
<path id="Vector_2" d="M42.8756 49.7705C41.6442 49.7705 40.5017 49.7705 39.3611 49.7705C35.6994 49.7687 32.0378 49.7941 28.3761 49.7542C26.7923 49.736 25.7062 48.8677 25.1177 47.4237C24.5728 46.0922 24.9851 44.521 26.0621 43.522C26.9194 42.7264 27.9765 42.5393 29.0881 42.5374C33.3546 42.5356 37.6211 42.5374 41.8876 42.5393C42.1836 42.5393 42.4779 42.5393 42.8266 42.5393C42.8429 42.1996 42.8684 41.9362 42.8684 41.6728C42.872 37.2552 42.8593 32.8358 42.8811 28.4182C42.8902 26.5182 43.96 25.0978 45.5946 24.6909C47.9776 24.0987 50.0918 25.7989 50.1136 28.4055C50.1481 32.794 50.1263 37.1808 50.1281 41.5693C50.1281 41.8654 50.1281 42.1596 50.1281 42.5465C51.4776 42.5465 52.74 42.5465 54.0023 42.5465C57.3606 42.5447 60.7208 42.5302 64.0791 42.5411C66.008 42.5483 67.3866 43.4602 67.9097 45.0133C68.7107 47.3946 67.027 49.7487 64.4551 49.7651C60.0669 49.7923 55.6805 49.7705 51.2924 49.7705C50.9364 49.7705 50.5804 49.7705 50.1227 49.7705C50.1227 50.2301 50.1227 50.6152 50.1227 50.9984C50.1245 55.2961 50.1372 59.5938 50.1245 63.8897C50.1172 66.153 48.6242 67.7515 46.5536 67.7678C44.4268 67.786 42.8829 66.1875 42.8756 63.9042C42.8611 59.6974 42.8738 55.4905 42.8756 51.2854C42.8774 50.8095 42.8756 50.3336 42.8756 49.7705Z" fill="#F4EDE6"/>
</g>
</g>
<defs>
<clipPath id="clip0_68_991">
<rect width="93" height="93" fill="white"/>
</clipPath>
</defs>
</svg>
